<svg xmlns="http://www.w3.org/2000/svg" xmlns:xlink="http://www.w3.org/1999/xlink" width="194" zoomAndPan="magnify" viewBox="0 0 145.5 55.5" height="74" preserveAspectRatio="xMidYMid meet" version="1.0"><defs><g/></defs><g fill="#babccb" fill-opacity="1"><g transform="translate(14.520238, 20.642856)"><g><path d="M 7.28125 0 L 4.09375 -10.40625 L 4.015625 -10.40625 C 4.023438 -10.164062 4.039062 -9.796875 4.0625 -9.296875 C 4.09375 -8.796875 4.117188 -8.257812 4.140625 -7.6875 C 4.171875 -7.125 4.1875 -6.617188 4.1875 -6.171875 L 4.1875 0 L 1.671875 0 L 1.671875 -13.28125 L 5.5 -13.28125 L 8.640625 -3.125 L 8.703125 -3.125 L 12.03125 -13.28125 L 15.859375 -13.28125 L 15.859375 0 L 13.234375 0 L 13.234375 -6.28125 C 13.234375 -6.707031 13.242188 -7.191406 13.265625 -7.734375 C 13.285156 -8.273438 13.300781 -8.789062 13.3125 -9.28125 C 13.332031 -9.769531 13.351562 -10.140625 13.375 -10.390625 L 13.296875 -10.390625 L 9.875 0 Z M 7.28125 0 "/></g></g></g><g fill="#babccb" fill-opacity="1"><g transform="translate(32.052284, 20.642856)"><g><path d="M 7.625 -6.25 L 7.625 -4.328125 L 6.09375 -4.328125 C 5.144531 -4.328125 4.460938 -4.222656 4.046875 -4.015625 C 3.640625 -3.804688 3.4375 -3.5 3.4375 -3.09375 C 3.4375 -2.75 3.625 -2.472656 4 -2.265625 C 4.375 -2.054688 5 -1.953125 5.875 -1.953125 C 6.632812 -1.953125 7.335938 -2.03125 7.984375 -2.1875 C 8.640625 -2.351562 9.179688 -2.535156 9.609375 -2.734375 L 9.609375 -0.515625 C 9.148438 -0.304688 8.585938 -0.132812 7.921875 0 C 7.253906 0.125 6.503906 0.1875 5.671875 0.1875 C 3.921875 0.1875 2.65625 -0.0820312 1.875 -0.625 C 1.09375 -1.175781 0.703125 -1.90625 0.703125 -2.8125 C 0.703125 -3.550781 0.925781 -4.101562 1.375 -4.46875 C 1.832031 -4.84375 2.429688 -5.101562 3.171875 -5.25 L 3.171875 -5.34375 C 2.515625 -5.488281 2.03125 -5.757812 1.71875 -6.15625 C 1.40625 -6.5625 1.25 -7.066406 1.25 -7.671875 C 1.25 -8.316406 1.445312 -8.832031 1.84375 -9.21875 C 2.238281 -9.613281 2.769531 -9.898438 3.4375 -10.078125 C 4.101562 -10.253906 4.847656 -10.34375 5.671875 -10.34375 C 6.378906 -10.34375 7.082031 -10.269531 7.78125 -10.125 C 8.488281 -9.988281 9.101562 -9.804688 9.625 -9.578125 L 8.78125 -7.5625 C 8.332031 -7.75 7.867188 -7.914062 7.390625 -8.0625 C 6.910156 -8.21875 6.363281 -8.296875 5.75 -8.296875 C 4.394531 -8.296875 3.71875 -7.976562 3.71875 -7.34375 C 3.71875 -6.945312 3.914062 -6.664062 4.3125 -6.5 C 4.71875 -6.332031 5.359375 -6.25 6.234375 -6.25 Z M 7.625 -6.25 "/></g></g></g><g fill="#babccb" fill-opacity="1"><g transform="translate(42.370722, 20.642856)"><g><path d="M 9.296875 -10.15625 L 9.296875 -8.0625 L 5.6875 -8.0625 L 5.6875 -3.171875 C 5.6875 -2.796875 5.796875 -2.507812 6.015625 -2.3125 C 6.242188 -2.125 6.535156 -2.03125 6.890625 -2.03125 C 7.203125 -2.03125 7.5 -2.054688 7.78125 -2.109375 C 8.070312 -2.160156 8.359375 -2.238281 8.640625 -2.34375 L 8.640625 -0.28125 C 8.359375 -0.144531 8.007812 -0.0351562 7.59375 0.046875 C 7.1875 0.140625 6.742188 0.1875 6.265625 0.1875 C 5.628906 0.1875 5.054688 0.0859375 4.546875 -0.109375 C 4.046875 -0.304688 3.648438 -0.644531 3.359375 -1.125 C 3.066406 -1.613281 2.921875 -2.296875 2.921875 -3.171875 L 2.921875 -8.0625 L 0.375 -8.0625 L 0.375 -9.21875 L 1.96875 -10.15625 Z M 9.296875 -10.15625 "/></g></g></g><g fill="#babccb" fill-opacity="1"><g transform="translate(52.373097, 20.642856)"><g><path d="M 4.8125 0.1875 C 3.625 0.1875 2.664062 -0.253906 1.9375 -1.140625 C 1.207031 -2.023438 0.84375 -3.320312 0.84375 -5.03125 C 0.84375 -6.757812 1.21875 -8.070312 1.96875 -8.96875 C 2.71875 -9.863281 3.734375 -10.3125 5.015625 -10.3125 C 5.734375 -10.3125 6.320312 -10.1875 6.78125 -9.9375 C 7.238281 -9.6875 7.625 -9.304688 7.9375 -8.796875 L 8.0625 -8.796875 C 8.113281 -9.003906 8.191406 -9.234375 8.296875 -9.484375 C 8.398438 -9.742188 8.53125 -9.96875 8.6875 -10.15625 L 10.96875 -10.15625 C 10.832031 -9.757812 10.6875 -9.179688 10.53125 -8.421875 C 10.382812 -7.660156 10.3125 -6.867188 10.3125 -6.046875 L 10.3125 -3.21875 C 10.3125 -2.789062 10.390625 -2.503906 10.546875 -2.359375 C 10.703125 -2.210938 10.878906 -2.140625 11.078125 -2.140625 C 11.171875 -2.140625 11.269531 -2.144531 11.375 -2.15625 C 11.488281 -2.175781 11.570312 -2.203125 11.625 -2.234375 L 11.625 -0.0625 C 11.53125 0 11.347656 0.0546875 11.078125 0.109375 C 10.804688 0.160156 10.570312 0.1875 10.375 0.1875 C 9.757812 0.1875 9.257812 0.078125 8.875 -0.140625 C 8.488281 -0.367188 8.191406 -0.769531 7.984375 -1.34375 L 7.796875 -1.34375 C 7.503906 -0.914062 7.125 -0.550781 6.65625 -0.25 C 6.1875 0.0390625 5.570312 0.1875 4.8125 0.1875 Z M 5.65625 -2.03125 C 6.425781 -2.03125 6.957031 -2.257812 7.25 -2.71875 C 7.550781 -3.1875 7.710938 -3.929688 7.734375 -4.953125 L 7.734375 -5.0625 C 7.734375 -6.050781 7.582031 -6.804688 7.28125 -7.328125 C 6.976562 -7.847656 6.421875 -8.109375 5.609375 -8.109375 C 4.953125 -8.109375 4.460938 -7.84375 4.140625 -7.3125 C 3.816406 -6.789062 3.65625 -6.023438 3.65625 -5.015625 C 3.65625 -3.023438 4.320312 -2.03125 5.65625 -2.03125 Z M 5.65625 -2.03125 "/></g></g></g><g fill="#babccb" fill-opacity="1"><g transform="translate(64.401973, 20.642856)"><g><path d="M 6.296875 -14.21875 C 7.179688 -14.21875 7.96875 -14.082031 8.65625 -13.8125 C 9.351562 -13.550781 9.898438 -13.15625 10.296875 -12.625 C 10.691406 -12.101562 10.890625 -11.445312 10.890625 -10.65625 C 10.890625 -9.757812 10.65625 -9.046875 10.1875 -8.515625 C 9.726562 -7.992188 9.078125 -7.664062 8.234375 -7.53125 L 8.234375 -7.46875 C 9.285156 -7.34375 10.113281 -7 10.71875 -6.4375 C 11.320312 -5.882812 11.625 -5.046875 11.625 -3.921875 C 11.625 -2.617188 11.21875 -1.609375 10.40625 -0.890625 C 9.601562 -0.171875 8.523438 0.1875 7.171875 0.1875 C 5.972656 0.1875 4.988281 -0.00390625 4.21875 -0.390625 L 4.21875 4.46875 L 1.453125 4.46875 L 1.453125 -9.953125 C 1.453125 -10.953125 1.664062 -11.765625 2.09375 -12.390625 C 2.519531 -13.015625 3.097656 -13.472656 3.828125 -13.765625 C 4.554688 -14.066406 5.378906 -14.21875 6.296875 -14.21875 Z M 6.234375 -12.0625 C 5.867188 -12.0625 5.53125 -11.992188 5.21875 -11.859375 C 4.914062 -11.722656 4.671875 -11.484375 4.484375 -11.140625 C 4.304688 -10.804688 4.21875 -10.320312 4.21875 -9.6875 L 4.21875 -2.65625 C 4.53125 -2.457031 4.894531 -2.300781 5.3125 -2.1875 C 5.738281 -2.082031 6.125 -2.03125 6.46875 -2.03125 C 7.238281 -2.03125 7.8125 -2.21875 8.1875 -2.59375 C 8.5625 -2.96875 8.75 -3.492188 8.75 -4.171875 C 8.75 -4.929688 8.515625 -5.457031 8.046875 -5.75 C 7.585938 -6.050781 7.035156 -6.203125 6.390625 -6.203125 L 5.75 -6.203125 L 5.75 -8.40625 L 6.234375 -8.40625 C 6.890625 -8.40625 7.367188 -8.582031 7.671875 -8.9375 C 7.972656 -9.289062 8.125 -9.75 8.125 -10.3125 C 8.125 -10.894531 7.945312 -11.332031 7.59375 -11.625 C 7.25 -11.914062 6.796875 -12.0625 6.234375 -12.0625 Z M 6.234375 -12.0625 "/></g></g></g><g fill="#babccb" fill-opacity="1"><g transform="translate(76.672551, 20.642856)"><g><path d="M 4.8125 0.1875 C 3.625 0.1875 2.664062 -0.253906 1.9375 -1.140625 C 1.207031 -2.023438 0.84375 -3.320312 0.84375 -5.03125 C 0.84375 -6.757812 1.21875 -8.070312 1.96875 -8.96875 C 2.71875 -9.863281 3.734375 -10.3125 5.015625 -10.3125 C 5.734375 -10.3125 6.320312 -10.1875 6.78125 -9.9375 C 7.238281 -9.6875 7.625 -9.304688 7.9375 -8.796875 L 8.0625 -8.796875 C 8.113281 -9.003906 8.191406 -9.234375 8.296875 -9.484375 C 8.398438 -9.742188 8.53125 -9.96875 8.6875 -10.15625 L 10.96875 -10.15625 C 10.832031 -9.757812 10.6875 -9.179688 10.53125 -8.421875 C 10.382812 -7.660156 10.3125 -6.867188 10.3125 -6.046875 L 10.3125 -3.21875 C 10.3125 -2.789062 10.390625 -2.503906 10.546875 -2.359375 C 10.703125 -2.210938 10.878906 -2.140625 11.078125 -2.140625 C 11.171875 -2.140625 11.269531 -2.144531 11.375 -2.15625 C 11.488281 -2.175781 11.570312 -2.203125 11.625 -2.234375 L 11.625 -0.0625 C 11.53125 0 11.347656 0.0546875 11.078125 0.109375 C 10.804688 0.160156 10.570312 0.1875 10.375 0.1875 C 9.757812 0.1875 9.257812 0.078125 8.875 -0.140625 C 8.488281 -0.367188 8.191406 -0.769531 7.984375 -1.34375 L 7.796875 -1.34375 C 7.503906 -0.914062 7.125 -0.550781 6.65625 -0.25 C 6.1875 0.0390625 5.570312 0.1875 4.8125 0.1875 Z M 5.65625 -2.03125 C 6.425781 -2.03125 6.957031 -2.257812 7.25 -2.71875 C 7.550781 -3.1875 7.710938 -3.929688 7.734375 -4.953125 L 7.734375 -5.0625 C 7.734375 -6.050781 7.582031 -6.804688 7.28125 -7.328125 C 6.976562 -7.847656 6.421875 -8.109375 5.609375 -8.109375 C 4.953125 -8.109375 4.460938 -7.84375 4.140625 -7.3125 C 3.816406 -6.789062 3.65625 -6.023438 3.65625 -5.015625 C 3.65625 -3.023438 4.320312 -2.03125 5.65625 -2.03125 Z M 4.9375 -11.265625 L 4.9375 -11.546875 C 5.019531 -11.828125 5.109375 -12.160156 5.203125 -12.546875 C 5.304688 -12.941406 5.398438 -13.332031 5.484375 -13.71875 C 5.578125 -14.113281 5.640625 -14.472656 5.671875 -14.796875 L 8.234375 -14.796875 L 8.234375 -14.578125 C 8.023438 -14.097656 7.78125 -13.570312 7.5 -13 C 7.21875 -12.425781 6.898438 -11.847656 6.546875 -11.265625 Z M 4.9375 -11.265625 "/></g></g></g><g fill="#babccb" fill-opacity="1"><g transform="translate(88.701427, 20.642856)"><g><path d="M 10.828125 -4.3125 C 10.828125 -3.46875 10.632812 -2.703125 10.25 -2.015625 C 9.863281 -1.335938 9.296875 -0.800781 8.546875 -0.40625 C 7.804688 -0.0078125 6.890625 0.1875 5.796875 0.1875 C 4.804688 0.1875 3.9375 -0.00390625 3.1875 -0.390625 C 2.445312 -0.785156 1.867188 -1.363281 1.453125 -2.125 C 1.046875 -2.882812 0.84375 -3.828125 0.84375 -4.953125 C 0.84375 -6.191406 1.070312 -7.191406 1.53125 -7.953125 C 1.988281 -8.722656 2.644531 -9.285156 3.5 -9.640625 C 4.363281 -9.992188 5.382812 -10.171875 6.5625 -10.171875 L 11.765625 -10.171875 L 11.765625 -8.140625 L 9.1875 -8.140625 C 9.632812 -7.671875 10.019531 -7.125 10.34375 -6.5 C 10.664062 -5.882812 10.828125 -5.15625 10.828125 -4.3125 Z M 3.6875 -4.953125 C 3.6875 -4.078125 3.851562 -3.375 4.1875 -2.84375 C 4.519531 -2.3125 5.070312 -2.046875 5.84375 -2.046875 C 6.59375 -2.046875 7.132812 -2.289062 7.46875 -2.78125 C 7.8125 -3.28125 7.984375 -3.929688 7.984375 -4.734375 C 7.984375 -5.484375 7.878906 -6.125 7.671875 -6.65625 C 7.472656 -7.1875 7.191406 -7.679688 6.828125 -8.140625 L 6.375 -8.140625 C 5.4375 -8.140625 4.753906 -7.90625 4.328125 -7.4375 C 3.898438 -6.976562 3.6875 -6.148438 3.6875 -4.953125 Z M 3.6875 -4.953125 "/></g></g></g><g fill="#babccb" fill-opacity="1"><g transform="translate(100.841868, 20.642856)"><g><path d="M 7.625 -6.25 L 7.625 -4.328125 L 6.09375 -4.328125 C 5.144531 -4.328125 4.460938 -4.222656 4.046875 -4.015625 C 3.640625 -3.804688 3.4375 -3.5 3.4375 -3.09375 C 3.4375 -2.75 3.625 -2.472656 4 -2.265625 C 4.375 -2.054688 5 -1.953125 5.875 -1.953125 C 6.632812 -1.953125 7.335938 -2.03125 7.984375 -2.1875 C 8.640625 -2.351562 9.179688 -2.535156 9.609375 -2.734375 L 9.609375 -0.515625 C 9.148438 -0.304688 8.585938 -0.132812 7.921875 0 C 7.253906 0.125 6.503906 0.1875 5.671875 0.1875 C 3.921875 0.1875 2.65625 -0.0820312 1.875 -0.625 C 1.09375 -1.175781 0.703125 -1.90625 0.703125 -2.8125 C 0.703125 -3.550781 0.925781 -4.101562 1.375 -4.46875 C 1.832031 -4.84375 2.429688 -5.101562 3.171875 -5.25 L 3.171875 -5.34375 C 2.515625 -5.488281 2.03125 -5.757812 1.71875 -6.15625 C 1.40625 -6.5625 1.25 -7.066406 1.25 -7.671875 C 1.25 -8.316406 1.445312 -8.832031 1.84375 -9.21875 C 2.238281 -9.613281 2.769531 -9.898438 3.4375 -10.078125 C 4.101562 -10.253906 4.847656 -10.34375 5.671875 -10.34375 C 6.378906 -10.34375 7.082031 -10.269531 7.78125 -10.125 C 8.488281 -9.988281 9.101562 -9.804688 9.625 -9.578125 L 8.78125 -7.5625 C 8.332031 -7.75 7.867188 -7.914062 7.390625 -8.0625 C 6.910156 -8.21875 6.363281 -8.296875 5.75 -8.296875 C 4.394531 -8.296875 3.71875 -7.976562 3.71875 -7.34375 C 3.71875 -6.945312 3.914062 -6.664062 4.3125 -6.5 C 4.71875 -6.332031 5.359375 -6.25 6.234375 -6.25 Z M 7.625 -6.25 "/></g></g></g><g fill="#babccb" fill-opacity="1"><g transform="translate(111.160307, 20.642856)"><g><path d="M 4.21875 -10.15625 L 4.21875 -3.171875 C 4.21875 -2.796875 4.328125 -2.507812 4.546875 -2.3125 C 4.773438 -2.125 5.066406 -2.03125 5.421875 -2.03125 C 5.734375 -2.03125 6.03125 -2.054688 6.3125 -2.109375 C 6.601562 -2.160156 6.890625 -2.238281 7.171875 -2.34375 L 7.171875 -0.28125 C 6.898438 -0.144531 6.554688 -0.0351562 6.140625 0.046875 C 5.722656 0.140625 5.273438 0.1875 4.796875 0.1875 C 4.160156 0.1875 3.59375 0.0859375 3.09375 -0.109375 C 2.59375 -0.304688 2.191406 -0.644531 1.890625 -1.125 C 1.597656 -1.613281 1.453125 -2.296875 1.453125 -3.171875 L 1.453125 -10.15625 Z M 4.21875 -10.15625 "/></g></g></g><g fill="#babccb" fill-opacity="1"><g transform="translate(118.72716, 20.642856)"><g><path d="M 5.90625 -10.34375 C 7.039062 -10.34375 8.117188 -10.097656 9.140625 -9.609375 L 8.34375 -7.515625 C 7.882812 -7.679688 7.445312 -7.820312 7.03125 -7.9375 C 6.625 -8.050781 6.226562 -8.109375 5.84375 -8.109375 C 5.070312 -8.109375 4.515625 -7.8125 4.171875 -7.21875 C 3.828125 -6.625 3.65625 -5.738281 3.65625 -4.5625 C 3.65625 -4 3.757812 -3.570312 3.96875 -3.28125 C 4.1875 -2.988281 4.488281 -2.769531 4.875 -2.625 C 5.269531 -2.488281 5.722656 -2.363281 6.234375 -2.25 C 7.335938 -2.007812 8.101562 -1.6875 8.53125 -1.28125 C 8.957031 -0.875 9.171875 -0.378906 9.171875 0.203125 C 9.171875 0.765625 9.039062 1.332031 8.78125 1.90625 C 8.519531 2.476562 8.234375 2.988281 7.921875 3.4375 L 5.125 3.4375 C 5.476562 2.925781 5.789062 2.40625 6.0625 1.875 C 6.332031 1.351562 6.46875 0.929688 6.46875 0.609375 C 6.46875 0.453125 6.367188 0.296875 6.171875 0.140625 C 5.984375 -0.00390625 5.535156 -0.144531 4.828125 -0.28125 C 3.585938 -0.507812 2.613281 -0.972656 1.90625 -1.671875 C 1.195312 -2.367188 0.84375 -3.304688 0.84375 -4.484375 C 0.84375 -5.972656 1.050781 -7.140625 1.46875 -7.984375 C 1.882812 -8.835938 2.472656 -9.441406 3.234375 -9.796875 C 4.003906 -10.160156 4.894531 -10.34375 5.90625 -10.34375 Z M 5.90625 -10.34375 "/></g></g></g><g fill="#babccb" fill-opacity="1"><g transform="translate(47.113727, 46.671169)"><g><path d="M 10.3125 0 L 0.453125 0 L 0.453125 -1.828125 L 6.8125 -10.953125 L 0.609375 -10.953125 L 0.609375 -13.28125 L 10.15625 -13.28125 L 10.15625 -11.453125 L 3.796875 -2.328125 L 10.3125 -2.328125 Z M 10.3125 0 "/></g></g></g><g fill="#babccb" fill-opacity="1"><g transform="translate(57.878366, 46.671169)"><g><path d="M 14.03125 -10.15625 C 14.394531 -9.257812 14.65625 -8.410156 14.8125 -7.609375 C 14.976562 -6.816406 15.0625 -5.921875 15.0625 -4.921875 C 15.0625 -3.921875 14.910156 -3.035156 14.609375 -2.265625 C 14.304688 -1.492188 13.847656 -0.890625 13.234375 -0.453125 C 12.628906 -0.0234375 11.875 0.1875 10.96875 0.1875 C 10.175781 0.1875 9.550781 0.015625 9.09375 -0.328125 C 8.644531 -0.679688 8.300781 -1.148438 8.0625 -1.734375 L 7.984375 -1.734375 C 7.742188 -1.148438 7.394531 -0.679688 6.9375 -0.328125 C 6.488281 0.015625 5.867188 0.1875 5.078125 0.1875 C 4.171875 0.1875 3.410156 -0.0234375 2.796875 -0.453125 C 2.191406 -0.890625 1.738281 -1.492188 1.4375 -2.265625 C 1.132812 -3.035156 0.984375 -3.921875 0.984375 -4.921875 C 0.984375 -5.921875 1.066406 -6.816406 1.234375 -7.609375 C 1.398438 -8.410156 1.660156 -9.257812 2.015625 -10.15625 L 4.671875 -10.15625 C 4.285156 -9.332031 4 -8.5 3.8125 -7.65625 C 3.625 -6.8125 3.53125 -5.929688 3.53125 -5.015625 C 3.53125 -4.109375 3.671875 -3.375 3.953125 -2.8125 C 4.234375 -2.25 4.679688 -1.96875 5.296875 -1.96875 C 5.859375 -1.96875 6.238281 -2.164062 6.4375 -2.5625 C 6.644531 -2.957031 6.75 -3.515625 6.75 -4.234375 L 6.75 -6.921875 L 9.296875 -6.921875 L 9.296875 -4.234375 C 9.296875 -3.515625 9.394531 -2.957031 9.59375 -2.5625 C 9.800781 -2.164062 10.1875 -1.96875 10.75 -1.96875 C 11.363281 -1.96875 11.8125 -2.25 12.09375 -2.8125 C 12.375 -3.375 12.515625 -4.097656 12.515625 -4.984375 C 12.515625 -5.898438 12.421875 -6.785156 12.234375 -7.640625 C 12.054688 -8.492188 11.769531 -9.332031 11.375 -10.15625 Z M 14.03125 -10.15625 "/></g></g></g><g fill="#babccb" fill-opacity="1"><g transform="translate(73.923065, 46.671169)"><g><path d="M 7.21875 -10.34375 C 8.300781 -10.34375 9.171875 -10.046875 9.828125 -9.453125 C 10.492188 -8.867188 10.828125 -7.925781 10.828125 -6.625 L 10.828125 4.46875 L 8.046875 4.46875 L 8.046875 -5.9375 C 8.046875 -6.664062 7.914062 -7.210938 7.65625 -7.578125 C 7.394531 -7.941406 6.984375 -8.125 6.421875 -8.125 C 5.578125 -8.125 5 -7.832031 4.6875 -7.25 C 4.375 -6.675781 4.21875 -5.851562 4.21875 -4.78125 L 4.21875 0 L 1.453125 0 L 1.453125 -10.15625 L 3.5625 -10.15625 L 3.9375 -8.84375 L 4.09375 -8.84375 C 4.414062 -9.363281 4.859375 -9.742188 5.421875 -9.984375 C 5.984375 -10.222656 6.582031 -10.34375 7.21875 -10.34375 Z M 5.3125 -11.265625 L 5.3125 -11.546875 C 5.394531 -11.828125 5.484375 -12.160156 5.578125 -12.546875 C 5.679688 -12.941406 5.773438 -13.332031 5.859375 -13.71875 C 5.953125 -14.113281 6.015625 -14.472656 6.046875 -14.796875 L 8.609375 -14.796875 L 8.609375 -14.578125 C 8.398438 -14.097656 8.15625 -13.570312 7.875 -13 C 7.59375 -12.425781 7.273438 -11.847656 6.921875 -11.265625 Z M 5.3125 -11.265625 "/></g></g></g><g fill="#babccb" fill-opacity="1"><g transform="translate(86.137869, 46.671169)"><g><path d="M 5.90625 -10.34375 C 7.039062 -10.34375 8.117188 -10.097656 9.140625 -9.609375 L 8.34375 -7.515625 C 7.882812 -7.679688 7.445312 -7.820312 7.03125 -7.9375 C 6.625 -8.050781 6.226562 -8.109375 5.84375 -8.109375 C 5.070312 -8.109375 4.515625 -7.8125 4.171875 -7.21875 C 3.828125 -6.625 3.65625 -5.738281 3.65625 -4.5625 C 3.65625 -4 3.757812 -3.570312 3.96875 -3.28125 C 4.1875 -2.988281 4.488281 -2.769531 4.875 -2.625 C 5.269531 -2.488281 5.722656 -2.363281 6.234375 -2.25 C 7.335938 -2.007812 8.101562 -1.6875 8.53125 -1.28125 C 8.957031 -0.875 9.171875 -0.378906 9.171875 0.203125 C 9.171875 0.765625 9.039062 1.332031 8.78125 1.90625 C 8.519531 2.476562 8.234375 2.988281 7.921875 3.4375 L 5.125 3.4375 C 5.476562 2.925781 5.789062 2.40625 6.0625 1.875 C 6.332031 1.351562 6.46875 0.929688 6.46875 0.609375 C 6.46875 0.453125 6.367188 0.296875 6.171875 0.140625 C 5.984375 -0.00390625 5.535156 -0.144531 4.828125 -0.28125 C 3.585938 -0.507812 2.613281 -0.972656 1.90625 -1.671875 C 1.195312 -2.367188 0.84375 -3.304688 0.84375 -4.484375 C 0.84375 -5.972656 1.050781 -7.140625 1.46875 -7.984375 C 1.882812 -8.835938 2.472656 -9.441406 3.234375 -9.796875 C 4.003906 -10.160156 4.894531 -10.34375 5.90625 -10.34375 Z M 5.90625 -10.34375 "/></g></g></g></svg>