<svg xmlns="http://www.w3.org/2000/svg" xmlns:xlink="http://www.w3.org/1999/xlink" width="194" zoomAndPan="magnify" viewBox="0 0 145.5 55.5" height="74" preserveAspectRatio="xMidYMid meet" version="1.0"><defs><g/></defs><g fill="#babccb" fill-opacity="1"><g transform="translate(4.510084, 21.693869)"><g><path d="M 0.625 0 L 0.625 -1.9375 L 4.375 -6.09375 L 0.71875 -9.75 L 0.71875 -11.640625 L 8.640625 -11.640625 L 8.640625 -9.609375 L 5.140625 -9.609375 C 4.828125 -9.609375 4.523438 -9.613281 4.234375 -9.625 C 3.941406 -9.632812 3.644531 -9.660156 3.34375 -9.703125 L 6.953125 -6.109375 L 3.15625 -1.9375 C 3.90625 -2 4.65625 -2.03125 5.40625 -2.03125 L 9.109375 -2.03125 L 9.109375 0 Z M 0.625 0 "/></g></g></g><g fill="#babccb" fill-opacity="1"><g transform="translate(14.172493, 21.693869)"><g><path d="M 5.234375 0.140625 C 4.171875 0.140625 3.34375 -0.046875 2.75 -0.421875 C 2.15625 -0.796875 1.738281 -1.296875 1.5 -1.921875 C 1.257812 -2.554688 1.140625 -3.269531 1.140625 -4.0625 L 1.140625 -8.890625 L 3.5625 -8.890625 L 3.5625 -3.96875 C 3.5625 -3.195312 3.703125 -2.640625 3.984375 -2.296875 C 4.265625 -1.960938 4.707031 -1.796875 5.3125 -1.796875 C 5.945312 -1.796875 6.421875 -2.023438 6.734375 -2.484375 C 7.054688 -2.953125 7.21875 -3.753906 7.21875 -4.890625 C 7.21875 -5.585938 7.164062 -6.25 7.0625 -6.875 C 6.957031 -7.507812 6.820312 -8.179688 6.65625 -8.890625 L 9.09375 -8.890625 C 9.269531 -8.191406 9.40625 -7.53125 9.5 -6.90625 C 9.59375 -6.28125 9.640625 -5.585938 9.640625 -4.828125 C 9.640625 -3.109375 9.265625 -1.847656 8.515625 -1.046875 C 7.773438 -0.253906 6.679688 0.140625 5.234375 0.140625 Z M 5.234375 0.140625 "/></g></g></g><g fill="#babccb" fill-opacity="1"><g transform="translate(24.682187, 21.693869)"><g><path d="M 0.046875 -8.890625 L 2.546875 -8.890625 L 4.265625 -3.953125 C 4.359375 -3.703125 4.457031 -3.394531 4.5625 -3.03125 C 4.664062 -2.664062 4.753906 -2.375 4.828125 -2.15625 L 4.890625 -2.15625 C 5.503906 -2.96875 5.941406 -3.90625 6.203125 -4.96875 C 6.472656 -6.039062 6.609375 -7.347656 6.609375 -8.890625 L 9.0625 -8.890625 C 9.0625 -7.722656 8.957031 -6.632812 8.75 -5.625 C 8.550781 -4.625 8.195312 -3.664062 7.6875 -2.75 C 7.1875 -1.832031 6.484375 -0.914062 5.578125 0 L 3.390625 0 Z M 0.046875 -8.890625 "/></g></g></g><g fill="#babccb" fill-opacity="1"><g transform="translate(34.377182, 21.693869)"><g><path d="M 4.21875 0.15625 C 3.175781 0.15625 2.332031 -0.226562 1.6875 -1 C 1.050781 -1.78125 0.734375 -2.921875 0.734375 -4.421875 C 0.734375 -5.929688 1.0625 -7.078125 1.71875 -7.859375 C 2.375 -8.648438 3.269531 -9.046875 4.40625 -9.046875 C 5.03125 -9.046875 5.539062 -8.929688 5.9375 -8.703125 C 6.34375 -8.484375 6.679688 -8.148438 6.953125 -7.703125 L 7.078125 -7.703125 C 7.117188 -7.890625 7.1875 -8.09375 7.28125 -8.3125 C 7.375 -8.539062 7.484375 -8.734375 7.609375 -8.890625 L 9.609375 -8.890625 C 9.492188 -8.546875 9.367188 -8.039062 9.234375 -7.375 C 9.109375 -6.71875 9.046875 -6.023438 9.046875 -5.296875 L 9.046875 -2.8125 C 9.046875 -2.445312 9.113281 -2.195312 9.25 -2.0625 C 9.382812 -1.9375 9.539062 -1.875 9.71875 -1.875 C 9.789062 -1.875 9.875 -1.878906 9.96875 -1.890625 C 10.070312 -1.910156 10.144531 -1.929688 10.1875 -1.953125 L 10.1875 -0.046875 C 10.113281 0.00390625 9.957031 0.0507812 9.71875 0.09375 C 9.476562 0.132812 9.269531 0.15625 9.09375 0.15625 C 8.550781 0.15625 8.109375 0.0625 7.765625 -0.125 C 7.429688 -0.320312 7.171875 -0.671875 6.984375 -1.171875 L 6.828125 -1.171875 C 6.578125 -0.804688 6.242188 -0.492188 5.828125 -0.234375 C 5.421875 0.0234375 4.882812 0.15625 4.21875 0.15625 Z M 4.953125 -1.78125 C 5.628906 -1.78125 6.097656 -1.984375 6.359375 -2.390625 C 6.617188 -2.796875 6.757812 -3.441406 6.78125 -4.328125 L 6.78125 -4.4375 C 6.78125 -5.300781 6.644531 -5.960938 6.375 -6.421875 C 6.113281 -6.878906 5.628906 -7.109375 4.921875 -7.109375 C 4.347656 -7.109375 3.914062 -6.875 3.625 -6.40625 C 3.34375 -5.945312 3.203125 -5.28125 3.203125 -4.40625 C 3.203125 -2.65625 3.785156 -1.78125 4.953125 -1.78125 Z M 4.953125 -1.78125 "/></g></g></g><g fill="#babccb" fill-opacity="1"><g transform="translate(44.919464, 21.693869)"><g><path d="M 3.703125 -8.890625 L 3.703125 -2.78125 C 3.703125 -2.445312 3.796875 -2.195312 3.984375 -2.03125 C 4.179688 -1.863281 4.441406 -1.78125 4.765625 -1.78125 C 5.035156 -1.78125 5.296875 -1.800781 5.546875 -1.84375 C 5.796875 -1.894531 6.046875 -1.960938 6.296875 -2.046875 L 6.296875 -0.25 C 6.054688 -0.125 5.753906 -0.0234375 5.390625 0.046875 C 5.023438 0.117188 4.628906 0.15625 4.203125 0.15625 C 3.648438 0.15625 3.148438 0.0703125 2.703125 -0.09375 C 2.265625 -0.269531 1.914062 -0.566406 1.65625 -0.984375 C 1.394531 -1.410156 1.265625 -2.007812 1.265625 -2.78125 L 1.265625 -8.890625 Z M 3.703125 -8.890625 "/></g></g></g><g fill="#babccb" fill-opacity="1"><g transform="translate(51.551164, 21.693869)"><g><path d="M 9.484375 -3.78125 C 9.484375 -3.039062 9.3125 -2.367188 8.96875 -1.765625 C 8.632812 -1.171875 8.140625 -0.703125 7.484375 -0.359375 C 6.835938 -0.015625 6.035156 0.15625 5.078125 0.15625 C 4.210938 0.15625 3.453125 -0.0078125 2.796875 -0.34375 C 2.148438 -0.6875 1.644531 -1.191406 1.28125 -1.859375 C 0.914062 -2.535156 0.734375 -3.359375 0.734375 -4.328125 C 0.734375 -5.421875 0.929688 -6.300781 1.328125 -6.96875 C 1.734375 -7.644531 2.3125 -8.140625 3.0625 -8.453125 C 3.820312 -8.765625 4.71875 -8.921875 5.75 -8.921875 L 10.3125 -8.921875 L 10.3125 -7.140625 L 8.046875 -7.140625 C 8.441406 -6.722656 8.78125 -6.242188 9.0625 -5.703125 C 9.34375 -5.160156 9.484375 -4.519531 9.484375 -3.78125 Z M 3.234375 -4.328125 C 3.234375 -3.566406 3.378906 -2.953125 3.671875 -2.484375 C 3.960938 -2.023438 4.445312 -1.796875 5.125 -1.796875 C 5.78125 -1.796875 6.253906 -2.007812 6.546875 -2.4375 C 6.835938 -2.875 6.984375 -3.445312 6.984375 -4.15625 C 6.984375 -4.8125 6.894531 -5.367188 6.71875 -5.828125 C 6.550781 -6.296875 6.304688 -6.734375 5.984375 -7.140625 L 5.59375 -7.140625 C 4.757812 -7.140625 4.15625 -6.9375 3.78125 -6.53125 C 3.414062 -6.125 3.234375 -5.390625 3.234375 -4.328125 Z M 3.234375 -4.328125 "/></g></g></g><g fill="#babccb" fill-opacity="1"><g transform="translate(62.191222, 21.693869)"><g><path d="M 9.34375 -6.15625 C 9.34375 -4.832031 9.195312 -3.703125 8.90625 -2.765625 C 8.613281 -1.828125 8.148438 -1.101562 7.515625 -0.59375 C 6.890625 -0.09375 6.054688 0.15625 5.015625 0.15625 C 3.554688 0.15625 2.476562 -0.398438 1.78125 -1.515625 C 1.082031 -2.628906 0.734375 -4.175781 0.734375 -6.15625 C 0.734375 -7.476562 0.875 -8.609375 1.15625 -9.546875 C 1.4375 -10.492188 1.890625 -11.21875 2.515625 -11.71875 C 3.148438 -12.21875 3.984375 -12.46875 5.015625 -12.46875 C 6.472656 -12.46875 7.554688 -11.914062 8.265625 -10.8125 C 8.984375 -9.707031 9.34375 -8.15625 9.34375 -6.15625 Z M 5.03125 -10.703125 C 4.425781 -10.703125 3.984375 -10.398438 3.703125 -9.796875 C 3.429688 -9.191406 3.273438 -8.296875 3.234375 -7.109375 L 6.84375 -7.109375 C 6.800781 -8.296875 6.640625 -9.191406 6.359375 -9.796875 C 6.078125 -10.398438 5.632812 -10.703125 5.03125 -10.703125 Z M 5.015625 -1.59375 C 5.640625 -1.59375 6.09375 -1.898438 6.375 -2.515625 C 6.664062 -3.128906 6.820312 -4.054688 6.84375 -5.296875 L 3.203125 -5.296875 C 3.222656 -4.066406 3.375 -3.140625 3.65625 -2.515625 C 3.9375 -1.898438 4.390625 -1.59375 5.015625 -1.59375 Z M 5.015625 -1.59375 "/></g></g></g><g fill="#babccb" fill-opacity="1"><g transform="translate(72.26098, 21.693869)"><g><path d="M 6.328125 -9.0625 C 7.273438 -9.0625 8.035156 -8.800781 8.609375 -8.28125 C 9.191406 -7.769531 9.484375 -6.941406 9.484375 -5.796875 L 9.484375 3.90625 L 7.0625 3.90625 L 7.0625 -5.203125 C 7.0625 -5.835938 6.945312 -6.316406 6.71875 -6.640625 C 6.488281 -6.960938 6.125 -7.125 5.625 -7.125 C 4.882812 -7.125 4.378906 -6.867188 4.109375 -6.359375 C 3.835938 -5.859375 3.703125 -5.132812 3.703125 -4.1875 L 3.703125 0 L 1.265625 0 L 1.265625 -8.890625 L 3.125 -8.890625 L 3.453125 -7.75 L 3.578125 -7.75 C 3.867188 -8.207031 4.257812 -8.539062 4.75 -8.75 C 5.238281 -8.957031 5.765625 -9.0625 6.328125 -9.0625 Z M 6.328125 -9.0625 "/></g></g></g><g fill="#babccb" fill-opacity="1"><g transform="translate(82.966211, 21.693869)"><g><path d="M 9.484375 -8.890625 L 9.484375 0 L 7.640625 0 L 7.296875 -1.1875 L 7.1875 -1.1875 C 6.96875 -0.738281 6.695312 -0.398438 6.375 -0.171875 C 6.0625 0.046875 5.671875 0.15625 5.203125 0.15625 C 4.535156 0.15625 4.023438 -0.078125 3.671875 -0.546875 L 3.625 -0.546875 C 3.644531 -0.441406 3.660156 -0.269531 3.671875 -0.03125 C 3.679688 0.195312 3.6875 0.4375 3.6875 0.6875 C 3.695312 0.945312 3.703125 1.175781 3.703125 1.375 L 3.703125 3.90625 L 1.265625 3.90625 L 1.265625 -8.890625 L 3.703125 -8.890625 L 3.703125 -3.703125 C 3.703125 -2.421875 4.1875 -1.78125 5.15625 -1.78125 C 5.875 -1.78125 6.367188 -2.03125 6.640625 -2.53125 C 6.921875 -3.039062 7.0625 -3.765625 7.0625 -4.703125 L 7.0625 -8.890625 Z M 9.484375 -8.890625 "/></g></g></g><g fill="#babccb" fill-opacity="1"><g transform="translate(93.720323, 21.693869)"><g><path d="M 4.21875 0.15625 C 3.175781 0.15625 2.332031 -0.226562 1.6875 -1 C 1.050781 -1.78125 0.734375 -2.921875 0.734375 -4.421875 C 0.734375 -5.929688 1.0625 -7.078125 1.71875 -7.859375 C 2.375 -8.648438 3.269531 -9.046875 4.40625 -9.046875 C 5.03125 -9.046875 5.539062 -8.929688 5.9375 -8.703125 C 6.34375 -8.484375 6.679688 -8.148438 6.953125 -7.703125 L 7.078125 -7.703125 C 7.117188 -7.890625 7.1875 -8.09375 7.28125 -8.3125 C 7.375 -8.539062 7.484375 -8.734375 7.609375 -8.890625 L 9.609375 -8.890625 C 9.492188 -8.546875 9.367188 -8.039062 9.234375 -7.375 C 9.109375 -6.71875 9.046875 -6.023438 9.046875 -5.296875 L 9.046875 -2.8125 C 9.046875 -2.445312 9.113281 -2.195312 9.25 -2.0625 C 9.382812 -1.9375 9.539062 -1.875 9.71875 -1.875 C 9.789062 -1.875 9.875 -1.878906 9.96875 -1.890625 C 10.070312 -1.910156 10.144531 -1.929688 10.1875 -1.953125 L 10.1875 -0.046875 C 10.113281 0.00390625 9.957031 0.0507812 9.71875 0.09375 C 9.476562 0.132812 9.269531 0.15625 9.09375 0.15625 C 8.550781 0.15625 8.109375 0.0625 7.765625 -0.125 C 7.429688 -0.320312 7.171875 -0.671875 6.984375 -1.171875 L 6.828125 -1.171875 C 6.578125 -0.804688 6.242188 -0.492188 5.828125 -0.234375 C 5.421875 0.0234375 4.882812 0.15625 4.21875 0.15625 Z M 4.953125 -1.78125 C 5.628906 -1.78125 6.097656 -1.984375 6.359375 -2.390625 C 6.617188 -2.796875 6.757812 -3.441406 6.78125 -4.328125 L 6.78125 -4.4375 C 6.78125 -5.300781 6.644531 -5.960938 6.375 -6.421875 C 6.113281 -6.878906 5.628906 -7.109375 4.921875 -7.109375 C 4.347656 -7.109375 3.914062 -6.875 3.625 -6.40625 C 3.34375 -5.945312 3.203125 -5.28125 3.203125 -4.40625 C 3.203125 -2.65625 3.785156 -1.78125 4.953125 -1.78125 Z M 4.953125 -1.78125 "/></g></g></g><g fill="#babccb" fill-opacity="1"><g transform="translate(104.262604, 21.693869)"><g><path d="M 8.140625 -8.890625 L 8.140625 -7.078125 L 4.984375 -7.078125 L 4.984375 -2.78125 C 4.984375 -2.445312 5.082031 -2.195312 5.28125 -2.03125 C 5.476562 -1.863281 5.734375 -1.78125 6.046875 -1.78125 C 6.316406 -1.78125 6.578125 -1.800781 6.828125 -1.84375 C 7.078125 -1.894531 7.328125 -1.960938 7.578125 -2.046875 L 7.578125 -0.25 C 7.328125 -0.125 7.019531 -0.0234375 6.65625 0.046875 C 6.300781 0.117188 5.910156 0.15625 5.484375 0.15625 C 4.929688 0.15625 4.429688 0.0703125 3.984375 -0.09375 C 3.546875 -0.269531 3.195312 -0.566406 2.9375 -0.984375 C 2.6875 -1.410156 2.5625 -2.007812 2.5625 -2.78125 L 2.5625 -7.078125 L 0.328125 -7.078125 L 0.328125 -8.078125 L 1.734375 -8.890625 Z M 8.140625 -8.890625 "/></g></g></g><g fill="#babccb" fill-opacity="1"><g transform="translate(113.02883, 21.693869)"><g><path d="M 3.703125 -8.890625 L 3.703125 -2.78125 C 3.703125 -2.445312 3.796875 -2.195312 3.984375 -2.03125 C 4.179688 -1.863281 4.441406 -1.78125 4.765625 -1.78125 C 5.035156 -1.78125 5.296875 -1.800781 5.546875 -1.84375 C 5.796875 -1.894531 6.046875 -1.960938 6.296875 -2.046875 L 6.296875 -0.25 C 6.054688 -0.125 5.753906 -0.0234375 5.390625 0.046875 C 5.023438 0.117188 4.628906 0.15625 4.203125 0.15625 C 3.648438 0.15625 3.148438 0.0703125 2.703125 -0.09375 C 2.265625 -0.269531 1.914062 -0.566406 1.65625 -0.984375 C 1.394531 -1.410156 1.265625 -2.007812 1.265625 -2.78125 L 1.265625 -8.890625 Z M 3.703125 -8.890625 "/></g></g></g><g fill="#babccb" fill-opacity="1"><g transform="translate(119.66053, 21.693869)"><g><path d="M 9.890625 -8.890625 L 6.390625 -4.828125 L 10.109375 0 L 7.328125 0 L 4.84375 -3.390625 L 3.703125 -2.671875 L 3.703125 0 L 1.265625 0 L 1.265625 -8.890625 L 3.703125 -8.890625 L 3.703125 -6.5625 C 3.691406 -6.238281 3.6875 -5.910156 3.6875 -5.578125 C 3.6875 -5.253906 3.675781 -4.9375 3.65625 -4.625 L 3.6875 -4.625 C 3.863281 -4.851562 4.046875 -5.078125 4.234375 -5.296875 C 4.421875 -5.523438 4.613281 -5.753906 4.8125 -5.984375 L 7.296875 -8.890625 Z M 9.890625 -8.890625 "/></g></g></g><g fill="#babccb" fill-opacity="1"><g transform="translate(129.762875, 21.693869)"><g><path d="M 6.328125 -9.0625 C 7.273438 -9.0625 8.035156 -8.800781 8.609375 -8.28125 C 9.191406 -7.769531 9.484375 -6.941406 9.484375 -5.796875 L 9.484375 3.90625 L 7.0625 3.90625 L 7.0625 -5.203125 C 7.0625 -5.835938 6.945312 -6.316406 6.71875 -6.640625 C 6.488281 -6.960938 6.125 -7.125 5.625 -7.125 C 4.882812 -7.125 4.378906 -6.867188 4.109375 -6.359375 C 3.835938 -5.859375 3.703125 -5.132812 3.703125 -4.1875 L 3.703125 0 L 1.265625 0 L 1.265625 -8.890625 L 3.125 -8.890625 L 3.453125 -7.75 L 3.578125 -7.75 C 3.867188 -8.207031 4.257812 -8.539062 4.75 -8.75 C 5.238281 -8.957031 5.765625 -9.0625 6.328125 -9.0625 Z M 4.640625 -9.875 L 4.640625 -10.125 C 4.710938 -10.375 4.789062 -10.664062 4.875 -11 C 4.96875 -11.34375 5.050781 -11.6875 5.125 -12.03125 C 5.207031 -12.375 5.265625 -12.6875 5.296875 -12.96875 L 7.546875 -12.96875 L 7.546875 -12.78125 C 7.359375 -12.351562 7.140625 -11.890625 6.890625 -11.390625 C 6.640625 -10.890625 6.363281 -10.382812 6.0625 -9.875 Z M 4.640625 -9.875 "/></g></g></g><g fill="#babccb" fill-opacity="1"><g transform="translate(31.429117, 44.505458)"><g><path d="M 6.765625 -11.6875 L 10.265625 -1.40625 L 10.265625 0 L 0.453125 0 L 0.453125 -1.421875 L 3.96875 -11.6875 Z M 7.75 -2.046875 L 5.75 -8.171875 C 5.71875 -8.242188 5.671875 -8.390625 5.609375 -8.609375 C 5.554688 -8.828125 5.503906 -9.039062 5.453125 -9.25 C 5.398438 -9.457031 5.367188 -9.59375 5.359375 -9.65625 C 5.347656 -9.59375 5.316406 -9.457031 5.265625 -9.25 C 5.222656 -9.039062 5.171875 -8.828125 5.109375 -8.609375 C 5.046875 -8.390625 5 -8.234375 4.96875 -8.140625 L 2.96875 -2.046875 Z M 7.75 -2.046875 "/></g></g></g><g fill="#babccb" fill-opacity="1"><g transform="translate(42.150642, 44.505458)"><g><path d="M 5.234375 0.140625 C 4.171875 0.140625 3.34375 -0.046875 2.75 -0.421875 C 2.15625 -0.796875 1.738281 -1.296875 1.5 -1.921875 C 1.257812 -2.554688 1.140625 -3.269531 1.140625 -4.0625 L 1.140625 -8.890625 L 3.5625 -8.890625 L 3.5625 -3.96875 C 3.5625 -3.195312 3.703125 -2.640625 3.984375 -2.296875 C 4.265625 -1.960938 4.707031 -1.796875 5.3125 -1.796875 C 5.945312 -1.796875 6.421875 -2.023438 6.734375 -2.484375 C 7.054688 -2.953125 7.21875 -3.753906 7.21875 -4.890625 C 7.21875 -5.585938 7.164062 -6.25 7.0625 -6.875 C 6.957031 -7.507812 6.820312 -8.179688 6.65625 -8.890625 L 9.09375 -8.890625 C 9.269531 -8.191406 9.40625 -7.53125 9.5 -6.90625 C 9.59375 -6.28125 9.640625 -5.585938 9.640625 -4.828125 C 9.640625 -3.109375 9.265625 -1.847656 8.515625 -1.046875 C 7.773438 -0.253906 6.679688 0.140625 5.234375 0.140625 Z M 5.234375 0.140625 "/></g></g></g><g fill="#babccb" fill-opacity="1"><g transform="translate(52.660337, 44.505458)"><g><path d="M 9.484375 -3.78125 C 9.484375 -3.039062 9.3125 -2.367188 8.96875 -1.765625 C 8.632812 -1.171875 8.140625 -0.703125 7.484375 -0.359375 C 6.835938 -0.015625 6.035156 0.15625 5.078125 0.15625 C 4.210938 0.15625 3.453125 -0.0078125 2.796875 -0.34375 C 2.148438 -0.6875 1.644531 -1.191406 1.28125 -1.859375 C 0.914062 -2.535156 0.734375 -3.359375 0.734375 -4.328125 C 0.734375 -5.421875 0.929688 -6.300781 1.328125 -6.96875 C 1.734375 -7.644531 2.3125 -8.140625 3.0625 -8.453125 C 3.820312 -8.765625 4.71875 -8.921875 5.75 -8.921875 L 10.3125 -8.921875 L 10.3125 -7.140625 L 8.046875 -7.140625 C 8.441406 -6.722656 8.78125 -6.242188 9.0625 -5.703125 C 9.34375 -5.160156 9.484375 -4.519531 9.484375 -3.78125 Z M 3.234375 -4.328125 C 3.234375 -3.566406 3.378906 -2.953125 3.671875 -2.484375 C 3.960938 -2.023438 4.445312 -1.796875 5.125 -1.796875 C 5.78125 -1.796875 6.253906 -2.007812 6.546875 -2.4375 C 6.835938 -2.875 6.984375 -3.445312 6.984375 -4.15625 C 6.984375 -4.8125 6.894531 -5.367188 6.71875 -5.828125 C 6.550781 -6.296875 6.304688 -6.734375 5.984375 -7.140625 L 5.59375 -7.140625 C 4.757812 -7.140625 4.15625 -6.9375 3.78125 -6.53125 C 3.414062 -6.125 3.234375 -5.390625 3.234375 -4.328125 Z M 3.234375 -4.328125 "/></g></g></g><g fill="#babccb" fill-opacity="1"><g transform="translate(63.300395, 44.505458)"><g><path d="M 2.5625 -9.078125 L 4.3125 -7.9375 C 3.90625 -7.375 3.585938 -6.8125 3.359375 -6.25 C 3.128906 -5.695312 3.015625 -5.0625 3.015625 -4.34375 C 3.015625 -3.507812 3.222656 -2.894531 3.640625 -2.5 C 4.054688 -2.113281 4.566406 -1.863281 5.171875 -1.75 L 5.171875 -5.84375 C 5.171875 -6.894531 5.46875 -7.6875 6.0625 -8.21875 C 6.65625 -8.757812 7.414062 -9.03125 8.34375 -9.03125 C 9.53125 -9.03125 10.460938 -8.644531 11.140625 -7.875 C 11.828125 -7.101562 12.171875 -6.046875 12.171875 -4.703125 C 12.171875 -3.691406 11.945312 -2.84375 11.5 -2.15625 C 11.0625 -1.476562 10.476562 -0.953125 9.75 -0.578125 C 9.03125 -0.210938 8.253906 0.0078125 7.421875 0.09375 L 7.421875 3.90625 L 5.171875 3.90625 L 5.171875 0.09375 C 4.316406 0.0078125 3.554688 -0.195312 2.890625 -0.53125 C 2.222656 -0.875 1.695312 -1.359375 1.3125 -1.984375 C 0.925781 -2.617188 0.734375 -3.425781 0.734375 -4.40625 C 0.734375 -5.332031 0.898438 -6.175781 1.234375 -6.9375 C 1.578125 -7.695312 2.019531 -8.410156 2.5625 -9.078125 Z M 8.375 -7.265625 C 8.070312 -7.265625 7.835938 -7.160156 7.671875 -6.953125 C 7.503906 -6.742188 7.421875 -6.378906 7.421875 -5.859375 L 7.421875 -1.75 C 8.148438 -1.8125 8.734375 -2.113281 9.171875 -2.65625 C 9.617188 -3.195312 9.84375 -3.875 9.84375 -4.6875 C 9.84375 -5.15625 9.796875 -5.582031 9.703125 -5.96875 C 9.609375 -6.363281 9.457031 -6.675781 9.25 -6.90625 C 9.039062 -7.144531 8.75 -7.265625 8.375 -7.265625 Z M 8.375 -7.265625 "/></g></g></g><g fill="#babccb" fill-opacity="1"><g transform="translate(76.205325, 44.505458)"><g><path d="M 9.359375 -4.46875 C 9.359375 -2.988281 8.96875 -1.847656 8.1875 -1.046875 C 7.414062 -0.242188 6.359375 0.15625 5.015625 0.15625 C 4.191406 0.15625 3.457031 -0.0195312 2.8125 -0.375 C 2.164062 -0.726562 1.65625 -1.25 1.28125 -1.9375 C 0.914062 -2.632812 0.734375 -3.476562 0.734375 -4.46875 C 0.734375 -5.945312 1.117188 -7.082031 1.890625 -7.875 C 2.660156 -8.664062 3.71875 -9.0625 5.0625 -9.0625 C 5.90625 -9.0625 6.644531 -8.878906 7.28125 -8.515625 C 7.925781 -8.160156 8.429688 -7.640625 8.796875 -6.953125 C 9.171875 -6.273438 9.359375 -5.445312 9.359375 -4.46875 Z M 3.203125 -4.46875 C 3.203125 -3.582031 3.347656 -2.914062 3.640625 -2.46875 C 3.929688 -2.019531 4.398438 -1.796875 5.046875 -1.796875 C 5.691406 -1.796875 6.15625 -2.019531 6.4375 -2.46875 C 6.726562 -2.914062 6.875 -3.582031 6.875 -4.46875 C 6.875 -5.34375 6.726562 -6 6.4375 -6.4375 C 6.15625 -6.882812 5.6875 -7.109375 5.03125 -7.109375 C 4.394531 -7.109375 3.929688 -6.882812 3.640625 -6.4375 C 3.347656 -6 3.203125 -5.34375 3.203125 -4.46875 Z M 3.203125 -4.46875 "/></g></g></g><g fill="#babccb" fill-opacity="1"><g transform="translate(86.291377, 44.505458)"><g><path d="M 9.34375 -4.453125 C 9.34375 -2.972656 9.007812 -1.832031 8.34375 -1.03125 C 7.675781 -0.238281 6.78125 0.15625 5.65625 0.15625 C 5.238281 0.15625 4.832031 0.0976562 4.4375 -0.015625 C 4.050781 -0.140625 3.710938 -0.285156 3.421875 -0.453125 L 3.28125 -0.453125 C 3.28125 -0.453125 3.289062 -0.335938 3.3125 -0.109375 C 3.332031 0.109375 3.351562 0.378906 3.375 0.703125 C 3.394531 1.035156 3.40625 1.359375 3.40625 1.671875 L 3.40625 3.90625 L 0.96875 3.90625 L 0.96875 -4.46875 C 0.96875 -5.925781 1.332031 -7.054688 2.0625 -7.859375 C 2.800781 -8.660156 3.847656 -9.0625 5.203125 -9.0625 C 5.992188 -9.0625 6.703125 -8.878906 7.328125 -8.515625 C 7.953125 -8.148438 8.441406 -7.625 8.796875 -6.9375 C 9.160156 -6.257812 9.34375 -5.429688 9.34375 -4.453125 Z M 5.15625 -7.109375 C 4.5625 -7.109375 4.117188 -6.910156 3.828125 -6.515625 C 3.546875 -6.128906 3.40625 -5.484375 3.40625 -4.578125 L 3.40625 -2.484375 C 3.632812 -2.253906 3.898438 -2.082031 4.203125 -1.96875 C 4.515625 -1.851562 4.832031 -1.796875 5.15625 -1.796875 C 5.757812 -1.796875 6.191406 -2 6.453125 -2.40625 C 6.710938 -2.820312 6.84375 -3.503906 6.84375 -4.453125 C 6.84375 -5.390625 6.710938 -6.066406 6.453125 -6.484375 C 6.191406 -6.898438 5.757812 -7.109375 5.15625 -7.109375 Z M 5.15625 -7.109375 "/></g></g></g><g fill="#babccb" fill-opacity="1"><g transform="translate(96.361135, 44.505458)"><g><path d="M 3.703125 -8.890625 L 3.703125 -2.78125 C 3.703125 -2.445312 3.796875 -2.195312 3.984375 -2.03125 C 4.179688 -1.863281 4.441406 -1.78125 4.765625 -1.78125 C 5.035156 -1.78125 5.296875 -1.800781 5.546875 -1.84375 C 5.796875 -1.894531 6.046875 -1.960938 6.296875 -2.046875 L 6.296875 -0.25 C 6.054688 -0.125 5.753906 -0.0234375 5.390625 0.046875 C 5.023438 0.117188 4.628906 0.15625 4.203125 0.15625 C 3.648438 0.15625 3.148438 0.0703125 2.703125 -0.09375 C 2.265625 -0.269531 1.914062 -0.566406 1.65625 -0.984375 C 1.394531 -1.410156 1.265625 -2.007812 1.265625 -2.78125 L 1.265625 -8.890625 Z M 1.71875 -9.875 L 1.71875 -10.125 C 1.789062 -10.375 1.867188 -10.664062 1.953125 -11 C 2.046875 -11.34375 2.128906 -11.6875 2.203125 -12.03125 C 2.285156 -12.375 2.34375 -12.6875 2.375 -12.96875 L 4.625 -12.96875 L 4.625 -12.78125 C 4.4375 -12.351562 4.21875 -11.890625 3.96875 -11.390625 C 3.71875 -10.890625 3.441406 -10.382812 3.140625 -9.875 Z M 1.71875 -9.875 "/></g></g></g><g fill="#babccb" fill-opacity="1"><g transform="translate(102.992835, 44.505458)"><g><path d="M 4.21875 0.15625 C 3.175781 0.15625 2.332031 -0.226562 1.6875 -1 C 1.050781 -1.78125 0.734375 -2.921875 0.734375 -4.421875 C 0.734375 -5.929688 1.0625 -7.078125 1.71875 -7.859375 C 2.375 -8.648438 3.269531 -9.046875 4.40625 -9.046875 C 5.03125 -9.046875 5.539062 -8.929688 5.9375 -8.703125 C 6.34375 -8.484375 6.679688 -8.148438 6.953125 -7.703125 L 7.078125 -7.703125 C 7.117188 -7.890625 7.1875 -8.09375 7.28125 -8.3125 C 7.375 -8.539062 7.484375 -8.734375 7.609375 -8.890625 L 9.609375 -8.890625 C 9.492188 -8.546875 9.367188 -8.039062 9.234375 -7.375 C 9.109375 -6.71875 9.046875 -6.023438 9.046875 -5.296875 L 9.046875 -2.8125 C 9.046875 -2.445312 9.113281 -2.195312 9.25 -2.0625 C 9.382812 -1.9375 9.539062 -1.875 9.71875 -1.875 C 9.789062 -1.875 9.875 -1.878906 9.96875 -1.890625 C 10.070312 -1.910156 10.144531 -1.929688 10.1875 -1.953125 L 10.1875 -0.046875 C 10.113281 0.00390625 9.957031 0.0507812 9.71875 0.09375 C 9.476562 0.132812 9.269531 0.15625 9.09375 0.15625 C 8.550781 0.15625 8.109375 0.0625 7.765625 -0.125 C 7.429688 -0.320312 7.171875 -0.671875 6.984375 -1.171875 L 6.828125 -1.171875 C 6.578125 -0.804688 6.242188 -0.492188 5.828125 -0.234375 C 5.421875 0.0234375 4.882812 0.15625 4.21875 0.15625 Z M 4.953125 -1.78125 C 5.628906 -1.78125 6.097656 -1.984375 6.359375 -2.390625 C 6.617188 -2.796875 6.757812 -3.441406 6.78125 -4.328125 L 6.78125 -4.4375 C 6.78125 -5.300781 6.644531 -5.960938 6.375 -6.421875 C 6.113281 -6.878906 5.628906 -7.109375 4.921875 -7.109375 C 4.347656 -7.109375 3.914062 -6.875 3.625 -6.40625 C 3.34375 -5.945312 3.203125 -5.28125 3.203125 -4.40625 C 3.203125 -2.65625 3.785156 -1.78125 4.953125 -1.78125 Z M 4.953125 -1.78125 "/></g></g></g></svg>