<svg xmlns="http://www.w3.org/2000/svg" xmlns:xlink="http://www.w3.org/1999/xlink" width="194" zoomAndPan="magnify" viewBox="0 0 145.5 55.5" height="74" preserveAspectRatio="xMidYMid meet" version="1.0"><defs><g/></defs><g fill="#babccb" fill-opacity="1"><g transform="translate(34.0918, 17.415114)"><g><path d="M 15.078125 -13.078125 L 15.078125 -8.796875 C 15.078125 -7.710938 14.894531 -6.804688 14.53125 -6.078125 C 14.164062 -5.359375 13.554688 -4.816406 12.703125 -4.453125 C 11.859375 -4.085938 10.710938 -3.90625 9.265625 -3.90625 L 9.265625 0 L 6.78125 0 L 6.78125 -3.90625 C 5.289062 -3.90625 4.125 -4.085938 3.28125 -4.453125 C 2.4375 -4.828125 1.835938 -5.375 1.484375 -6.09375 C 1.140625 -6.8125 0.96875 -7.695312 0.96875 -8.75 L 0.96875 -13.078125 L 3.578125 -13.078125 L 3.578125 -8.796875 C 3.578125 -8.085938 3.691406 -7.539062 3.921875 -7.15625 C 4.148438 -6.769531 4.5 -6.503906 4.96875 -6.359375 C 5.4375 -6.210938 6.039062 -6.140625 6.78125 -6.140625 L 6.78125 -13.078125 L 9.265625 -13.078125 L 9.265625 -6.140625 C 9.921875 -6.140625 10.488281 -6.207031 10.96875 -6.34375 C 11.445312 -6.488281 11.816406 -6.75 12.078125 -7.125 C 12.335938 -7.5 12.46875 -8.039062 12.46875 -8.75 L 12.46875 -13.078125 Z M 15.078125 -13.078125 "/></g></g></g><g fill="#babccb" fill-opacity="1"><g transform="translate(50.131086, 17.415114)"><g><path d="M 5.875 0.171875 C 4.675781 0.171875 3.742188 -0.0351562 3.078125 -0.453125 C 2.421875 -0.878906 1.957031 -1.445312 1.6875 -2.15625 C 1.414062 -2.863281 1.28125 -3.664062 1.28125 -4.5625 L 1.28125 -10 L 4.015625 -10 L 4.015625 -4.46875 C 4.015625 -3.601562 4.164062 -2.976562 4.46875 -2.59375 C 4.78125 -2.207031 5.28125 -2.015625 5.96875 -2.015625 C 6.675781 -2.015625 7.207031 -2.273438 7.5625 -2.796875 C 7.925781 -3.328125 8.109375 -4.226562 8.109375 -5.5 C 8.109375 -6.28125 8.050781 -7.023438 7.9375 -7.734375 C 7.820312 -8.441406 7.664062 -9.195312 7.46875 -10 L 10.21875 -10 C 10.414062 -9.207031 10.566406 -8.457031 10.671875 -7.75 C 10.785156 -7.050781 10.84375 -6.273438 10.84375 -5.421875 C 10.84375 -3.492188 10.421875 -2.078125 9.578125 -1.171875 C 8.734375 -0.273438 7.5 0.171875 5.875 0.171875 Z M 5.875 0.171875 "/></g></g></g><g fill="#babccb" fill-opacity="1"><g transform="translate(61.94083, 17.415114)"><g><path d="M 2.140625 -10.125 C 2.710938 -10.125 3.175781 -10.035156 3.53125 -9.859375 C 3.882812 -9.679688 4.175781 -9.398438 4.40625 -9.015625 C 4.644531 -8.640625 4.859375 -8.15625 5.046875 -7.5625 L 5.71875 -5.578125 L 8.203125 -10 L 10.953125 -10 L 6.890625 -3.1875 L 8.625 1.0625 C 8.789062 1.46875 8.984375 1.742188 9.203125 1.890625 C 9.429688 2.035156 9.710938 2.109375 10.046875 2.109375 C 10.179688 2.109375 10.316406 2.097656 10.453125 2.078125 C 10.585938 2.066406 10.753906 2.039062 10.953125 2 L 10.953125 4.125 C 10.691406 4.207031 10.429688 4.269531 10.171875 4.3125 C 9.910156 4.363281 9.59375 4.390625 9.21875 4.390625 C 8.40625 4.390625 7.769531 4.171875 7.3125 3.734375 C 6.851562 3.296875 6.484375 2.644531 6.203125 1.78125 L 5.28125 -1.140625 L 2.46875 4.390625 L -0.4375 4.390625 L 4.046875 -3.515625 L 2.859375 -6.671875 C 2.679688 -7.128906 2.476562 -7.4375 2.25 -7.59375 C 2.03125 -7.757812 1.78125 -7.84375 1.5 -7.84375 C 1.375 -7.84375 1.21875 -7.828125 1.03125 -7.796875 C 0.851562 -7.773438 0.664062 -7.734375 0.46875 -7.671875 L 0.46875 -9.859375 C 0.726562 -9.929688 0.992188 -9.992188 1.265625 -10.046875 C 1.535156 -10.097656 1.828125 -10.125 2.140625 -10.125 Z M 2.140625 -10.125 "/></g></g></g><g fill="#babccb" fill-opacity="1"><g transform="translate(72.78017, 17.415114)"><g><path d="M 4.15625 -10 L 4.15625 -3.125 C 4.15625 -2.75 4.265625 -2.46875 4.484375 -2.28125 C 4.703125 -2.09375 4.988281 -2 5.34375 -2 C 5.65625 -2 5.945312 -2.023438 6.21875 -2.078125 C 6.5 -2.128906 6.78125 -2.207031 7.0625 -2.3125 L 7.0625 -0.28125 C 6.800781 -0.144531 6.460938 -0.0351562 6.046875 0.046875 C 5.640625 0.140625 5.195312 0.1875 4.71875 0.1875 C 4.101562 0.1875 3.546875 0.0859375 3.046875 -0.109375 C 2.554688 -0.304688 2.160156 -0.640625 1.859375 -1.109375 C 1.566406 -1.585938 1.421875 -2.257812 1.421875 -3.125 L 1.421875 -10 Z M 4.15625 -10 "/></g></g></g><g fill="#babccb" fill-opacity="1"><g transform="translate(80.232211, 17.415114)"><g><path d="M 11.109375 -10 L 7.171875 -5.421875 L 11.359375 0 L 8.234375 0 L 5.4375 -3.8125 L 4.15625 -3 L 4.15625 0 L 1.421875 0 L 1.421875 -10 L 4.15625 -10 L 4.15625 -7.375 C 4.144531 -7.007812 4.140625 -6.644531 4.140625 -6.28125 C 4.140625 -5.914062 4.128906 -5.554688 4.109375 -5.203125 L 4.140625 -5.203125 C 4.347656 -5.453125 4.554688 -5.703125 4.765625 -5.953125 C 4.972656 -6.210938 5.1875 -6.46875 5.40625 -6.71875 L 8.203125 -10 Z M 11.109375 -10 "/></g></g></g><g fill="#babccb" fill-opacity="1"><g transform="translate(91.584216, 17.415114)"><g><path d="M 7.515625 -6.15625 L 7.515625 -4.265625 L 6 -4.265625 C 5.0625 -4.265625 4.390625 -4.160156 3.984375 -3.953125 C 3.585938 -3.742188 3.390625 -3.441406 3.390625 -3.046875 C 3.390625 -2.710938 3.570312 -2.441406 3.9375 -2.234375 C 4.300781 -2.023438 4.914062 -1.921875 5.78125 -1.921875 C 6.53125 -1.921875 7.222656 -2 7.859375 -2.15625 C 8.503906 -2.320312 9.039062 -2.5 9.46875 -2.6875 L 9.46875 -0.515625 C 9.019531 -0.304688 8.460938 -0.132812 7.796875 0 C 7.140625 0.125 6.398438 0.1875 5.578125 0.1875 C 3.859375 0.1875 2.613281 -0.078125 1.84375 -0.609375 C 1.082031 -1.148438 0.703125 -1.867188 0.703125 -2.765625 C 0.703125 -3.492188 0.921875 -4.039062 1.359375 -4.40625 C 1.804688 -4.78125 2.394531 -5.035156 3.125 -5.171875 L 3.125 -5.25 C 2.476562 -5.394531 2 -5.664062 1.6875 -6.0625 C 1.382812 -6.46875 1.234375 -6.96875 1.234375 -7.5625 C 1.234375 -8.195312 1.425781 -8.707031 1.8125 -9.09375 C 2.207031 -9.476562 2.734375 -9.753906 3.390625 -9.921875 C 4.046875 -10.097656 4.773438 -10.1875 5.578125 -10.1875 C 6.273438 -10.1875 6.972656 -10.117188 7.671875 -9.984375 C 8.367188 -9.847656 8.972656 -9.664062 9.484375 -9.4375 L 8.640625 -7.453125 C 8.203125 -7.640625 7.75 -7.804688 7.28125 -7.953125 C 6.8125 -8.097656 6.269531 -8.171875 5.65625 -8.171875 C 4.320312 -8.171875 3.65625 -7.859375 3.65625 -7.234375 C 3.65625 -6.835938 3.851562 -6.554688 4.25 -6.390625 C 4.65625 -6.234375 5.285156 -6.15625 6.140625 -6.15625 Z M 4.734375 -11.09375 L 4.734375 -11.375 C 4.828125 -11.65625 4.921875 -11.988281 5.015625 -12.375 C 5.109375 -12.757812 5.195312 -13.140625 5.28125 -13.515625 C 5.375 -13.898438 5.4375 -14.253906 5.46875 -14.578125 L 8 -14.578125 L 8 -14.359375 C 7.789062 -13.878906 7.546875 -13.359375 7.265625 -12.796875 C 6.984375 -12.234375 6.671875 -11.664062 6.328125 -11.09375 Z M 4.734375 -11.09375 "/></g></g></g><g fill="#babccb" fill-opacity="1"><g transform="translate(101.746093, 17.415114)"><g><path d="M 5.828125 -10.1875 C 6.929688 -10.1875 7.992188 -9.945312 9.015625 -9.46875 L 8.21875 -7.390625 C 7.769531 -7.566406 7.335938 -7.707031 6.921875 -7.8125 C 6.515625 -7.925781 6.125 -7.984375 5.75 -7.984375 C 4.988281 -7.984375 4.441406 -7.6875 4.109375 -7.09375 C 3.773438 -6.507812 3.609375 -5.640625 3.609375 -4.484375 C 3.609375 -3.929688 3.710938 -3.507812 3.921875 -3.21875 C 4.128906 -2.9375 4.425781 -2.722656 4.8125 -2.578125 C 5.195312 -2.441406 5.640625 -2.320312 6.140625 -2.21875 C 7.222656 -1.988281 7.972656 -1.671875 8.390625 -1.265625 C 8.816406 -0.859375 9.03125 -0.367188 9.03125 0.203125 C 9.03125 0.753906 8.898438 1.3125 8.640625 1.875 C 8.390625 2.445312 8.109375 2.953125 7.796875 3.390625 L 5.046875 3.390625 C 5.390625 2.890625 5.695312 2.378906 5.96875 1.859375 C 6.238281 1.335938 6.375 0.921875 6.375 0.609375 C 6.375 0.441406 6.28125 0.285156 6.09375 0.140625 C 5.90625 -0.00390625 5.460938 -0.144531 4.765625 -0.28125 C 3.546875 -0.507812 2.582031 -0.960938 1.875 -1.640625 C 1.175781 -2.328125 0.828125 -3.25 0.828125 -4.40625 C 0.828125 -5.875 1.03125 -7.023438 1.4375 -7.859375 C 1.851562 -8.703125 2.4375 -9.300781 3.1875 -9.65625 C 3.945312 -10.007812 4.828125 -10.1875 5.828125 -10.1875 Z M 5.828125 -10.1875 "/></g></g></g><g fill="#babccb" fill-opacity="1"><g transform="translate(19.329718, 43.048498)"><g><path d="M 7.59375 -13.125 L 11.53125 -1.578125 L 11.53125 0 L 0.515625 0 L 0.515625 -1.59375 L 4.46875 -13.125 Z M 8.71875 -2.3125 L 6.46875 -9.171875 C 6.425781 -9.253906 6.367188 -9.414062 6.296875 -9.65625 C 6.234375 -9.90625 6.175781 -10.148438 6.125 -10.390625 C 6.070312 -10.628906 6.039062 -10.785156 6.03125 -10.859375 C 6.007812 -10.785156 5.972656 -10.628906 5.921875 -10.390625 C 5.867188 -10.148438 5.804688 -9.90625 5.734375 -9.65625 C 5.671875 -9.414062 5.617188 -9.25 5.578125 -9.15625 L 3.328125 -2.3125 Z M 8.71875 -2.3125 "/></g></g></g><g fill="#babccb" fill-opacity="1"><g transform="translate(31.377495, 43.048498)"><g><path d="M 4.15625 -10 L 4.15625 -3.125 C 4.15625 -2.75 4.265625 -2.46875 4.484375 -2.28125 C 4.703125 -2.09375 4.988281 -2 5.34375 -2 C 5.65625 -2 5.945312 -2.023438 6.21875 -2.078125 C 6.5 -2.128906 6.78125 -2.207031 7.0625 -2.3125 L 7.0625 -0.28125 C 6.800781 -0.144531 6.460938 -0.0351562 6.046875 0.046875 C 5.640625 0.140625 5.195312 0.1875 4.71875 0.1875 C 4.101562 0.1875 3.546875 0.0859375 3.046875 -0.109375 C 2.554688 -0.304688 2.160156 -0.640625 1.859375 -1.109375 C 1.566406 -1.585938 1.421875 -2.257812 1.421875 -3.125 L 1.421875 -10 Z M 4.15625 -10 "/></g></g></g><g fill="#babccb" fill-opacity="1"><g transform="translate(38.829537, 43.048498)"><g><path d="M 4.75 0.1875 C 3.570312 0.1875 2.625 -0.25 1.90625 -1.125 C 1.1875 -2 0.828125 -3.28125 0.828125 -4.96875 C 0.828125 -6.664062 1.195312 -7.953125 1.9375 -8.828125 C 2.675781 -9.710938 3.675781 -10.15625 4.9375 -10.15625 C 5.644531 -10.15625 6.222656 -10.03125 6.671875 -9.78125 C 7.128906 -9.53125 7.507812 -9.15625 7.8125 -8.65625 L 7.953125 -8.65625 C 7.992188 -8.863281 8.066406 -9.09375 8.171875 -9.34375 C 8.273438 -9.59375 8.398438 -9.8125 8.546875 -10 L 10.796875 -10 C 10.671875 -9.601562 10.53125 -9.03125 10.375 -8.28125 C 10.226562 -7.539062 10.15625 -6.765625 10.15625 -5.953125 L 10.15625 -3.171875 C 10.15625 -2.753906 10.234375 -2.472656 10.390625 -2.328125 C 10.546875 -2.179688 10.722656 -2.109375 10.921875 -2.109375 C 11.003906 -2.109375 11.097656 -2.113281 11.203125 -2.125 C 11.316406 -2.144531 11.394531 -2.171875 11.4375 -2.203125 L 11.4375 -0.0625 C 11.351562 0 11.175781 0.0546875 10.90625 0.109375 C 10.644531 0.160156 10.414062 0.1875 10.21875 0.1875 C 9.601562 0.1875 9.109375 0.078125 8.734375 -0.140625 C 8.359375 -0.359375 8.066406 -0.75 7.859375 -1.3125 L 7.671875 -1.3125 C 7.390625 -0.90625 7.015625 -0.550781 6.546875 -0.25 C 6.085938 0.0390625 5.488281 0.1875 4.75 0.1875 Z M 5.5625 -2 C 6.320312 -2 6.847656 -2.226562 7.140625 -2.6875 C 7.429688 -3.144531 7.59375 -3.875 7.625 -4.875 L 7.625 -4.984375 C 7.625 -5.960938 7.472656 -6.707031 7.171875 -7.21875 C 6.867188 -7.726562 6.320312 -7.984375 5.53125 -7.984375 C 4.882812 -7.984375 4.398438 -7.722656 4.078125 -7.203125 C 3.765625 -6.679688 3.609375 -5.925781 3.609375 -4.9375 C 3.609375 -2.976562 4.257812 -2 5.5625 -2 Z M 5.5625 -2 "/></g></g></g><g fill="#babccb" fill-opacity="1"><g transform="translate(50.675899, 43.048498)"><g><path d="M 9.15625 -10 L 9.15625 -7.953125 L 5.609375 -7.953125 L 5.609375 -3.125 C 5.609375 -2.75 5.71875 -2.46875 5.9375 -2.28125 C 6.15625 -2.09375 6.441406 -2 6.796875 -2 C 7.097656 -2 7.390625 -2.023438 7.671875 -2.078125 C 7.953125 -2.128906 8.234375 -2.207031 8.515625 -2.3125 L 8.515625 -0.28125 C 8.234375 -0.144531 7.890625 -0.0351562 7.484375 0.046875 C 7.085938 0.140625 6.648438 0.1875 6.171875 0.1875 C 5.546875 0.1875 4.984375 0.0859375 4.484375 -0.109375 C 3.984375 -0.304688 3.585938 -0.640625 3.296875 -1.109375 C 3.015625 -1.585938 2.875 -2.257812 2.875 -3.125 L 2.875 -7.953125 L 0.359375 -7.953125 L 0.359375 -9.078125 L 1.9375 -10 Z M 9.15625 -10 "/></g></g></g><g fill="#babccb" fill-opacity="1"><g transform="translate(60.526507, 43.048498)"><g><path d="M 4.75 0.1875 C 3.570312 0.1875 2.625 -0.25 1.90625 -1.125 C 1.1875 -2 0.828125 -3.28125 0.828125 -4.96875 C 0.828125 -6.664062 1.195312 -7.953125 1.9375 -8.828125 C 2.675781 -9.710938 3.675781 -10.15625 4.9375 -10.15625 C 5.644531 -10.15625 6.222656 -10.03125 6.671875 -9.78125 C 7.128906 -9.53125 7.507812 -9.15625 7.8125 -8.65625 L 7.953125 -8.65625 C 7.992188 -8.863281 8.066406 -9.09375 8.171875 -9.34375 C 8.273438 -9.59375 8.398438 -9.8125 8.546875 -10 L 10.796875 -10 C 10.671875 -9.601562 10.53125 -9.03125 10.375 -8.28125 C 10.226562 -7.539062 10.15625 -6.765625 10.15625 -5.953125 L 10.15625 -3.171875 C 10.15625 -2.753906 10.234375 -2.472656 10.390625 -2.328125 C 10.546875 -2.179688 10.722656 -2.109375 10.921875 -2.109375 C 11.003906 -2.109375 11.097656 -2.113281 11.203125 -2.125 C 11.316406 -2.144531 11.394531 -2.171875 11.4375 -2.203125 L 11.4375 -0.0625 C 11.351562 0 11.175781 0.0546875 10.90625 0.109375 C 10.644531 0.160156 10.414062 0.1875 10.21875 0.1875 C 9.601562 0.1875 9.109375 0.078125 8.734375 -0.140625 C 8.359375 -0.359375 8.066406 -0.75 7.859375 -1.3125 L 7.671875 -1.3125 C 7.390625 -0.90625 7.015625 -0.550781 6.546875 -0.25 C 6.085938 0.0390625 5.488281 0.1875 4.75 0.1875 Z M 5.5625 -2 C 6.320312 -2 6.847656 -2.226562 7.140625 -2.6875 C 7.429688 -3.144531 7.59375 -3.875 7.625 -4.875 L 7.625 -4.984375 C 7.625 -5.960938 7.472656 -6.707031 7.171875 -7.21875 C 6.867188 -7.726562 6.320312 -7.984375 5.53125 -7.984375 C 4.882812 -7.984375 4.398438 -7.722656 4.078125 -7.203125 C 3.765625 -6.679688 3.609375 -5.925781 3.609375 -4.9375 C 3.609375 -2.976562 4.257812 -2 5.5625 -2 Z M 5.5625 -2 "/></g></g></g><g fill="#babccb" fill-opacity="1"><g transform="translate(72.372868, 43.048498)"><g><path d="M 10.5 -5 C 10.5 -3.34375 10.125 -2.0625 9.375 -1.15625 C 8.632812 -0.257812 7.628906 0.1875 6.359375 0.1875 C 5.890625 0.1875 5.4375 0.117188 5 -0.015625 C 4.5625 -0.148438 4.175781 -0.316406 3.84375 -0.515625 L 3.6875 -0.515625 C 3.6875 -0.515625 3.695312 -0.390625 3.71875 -0.140625 C 3.738281 0.109375 3.757812 0.421875 3.78125 0.796875 C 3.8125 1.171875 3.828125 1.535156 3.828125 1.890625 L 3.828125 4.390625 L 1.078125 4.390625 L 1.078125 -5.015625 C 1.078125 -6.648438 1.492188 -7.921875 2.328125 -8.828125 C 3.160156 -9.734375 4.332031 -10.1875 5.84375 -10.1875 C 6.726562 -10.1875 7.519531 -9.976562 8.21875 -9.5625 C 8.925781 -9.15625 9.484375 -8.566406 9.890625 -7.796875 C 10.296875 -7.023438 10.5 -6.09375 10.5 -5 Z M 5.78125 -7.984375 C 5.125 -7.984375 4.632812 -7.765625 4.3125 -7.328125 C 3.988281 -6.890625 3.828125 -6.160156 3.828125 -5.140625 L 3.828125 -2.78125 C 4.085938 -2.53125 4.390625 -2.335938 4.734375 -2.203125 C 5.078125 -2.078125 5.425781 -2.015625 5.78125 -2.015625 C 6.46875 -2.015625 6.957031 -2.242188 7.25 -2.703125 C 7.539062 -3.171875 7.6875 -3.9375 7.6875 -5 C 7.6875 -6.0625 7.539062 -6.820312 7.25 -7.28125 C 6.957031 -7.75 6.46875 -7.984375 5.78125 -7.984375 Z M 5.78125 -7.984375 "/></g></g></g><g fill="#babccb" fill-opacity="1"><g transform="translate(83.688256, 43.048498)"><g><path d="M 4.75 0.1875 C 3.570312 0.1875 2.625 -0.25 1.90625 -1.125 C 1.1875 -2 0.828125 -3.28125 0.828125 -4.96875 C 0.828125 -6.664062 1.195312 -7.953125 1.9375 -8.828125 C 2.675781 -9.710938 3.675781 -10.15625 4.9375 -10.15625 C 5.644531 -10.15625 6.222656 -10.03125 6.671875 -9.78125 C 7.128906 -9.53125 7.507812 -9.15625 7.8125 -8.65625 L 7.953125 -8.65625 C 7.992188 -8.863281 8.066406 -9.09375 8.171875 -9.34375 C 8.273438 -9.59375 8.398438 -9.8125 8.546875 -10 L 10.796875 -10 C 10.671875 -9.601562 10.53125 -9.03125 10.375 -8.28125 C 10.226562 -7.539062 10.15625 -6.765625 10.15625 -5.953125 L 10.15625 -3.171875 C 10.15625 -2.753906 10.234375 -2.472656 10.390625 -2.328125 C 10.546875 -2.179688 10.722656 -2.109375 10.921875 -2.109375 C 11.003906 -2.109375 11.097656 -2.113281 11.203125 -2.125 C 11.316406 -2.144531 11.394531 -2.171875 11.4375 -2.203125 L 11.4375 -0.0625 C 11.351562 0 11.175781 0.0546875 10.90625 0.109375 C 10.644531 0.160156 10.414062 0.1875 10.21875 0.1875 C 9.601562 0.1875 9.109375 0.078125 8.734375 -0.140625 C 8.359375 -0.359375 8.066406 -0.75 7.859375 -1.3125 L 7.671875 -1.3125 C 7.390625 -0.90625 7.015625 -0.550781 6.546875 -0.25 C 6.085938 0.0390625 5.488281 0.1875 4.75 0.1875 Z M 5.5625 -2 C 6.320312 -2 6.847656 -2.226562 7.140625 -2.6875 C 7.429688 -3.144531 7.59375 -3.875 7.625 -4.875 L 7.625 -4.984375 C 7.625 -5.960938 7.472656 -6.707031 7.171875 -7.21875 C 6.867188 -7.726562 6.320312 -7.984375 5.53125 -7.984375 C 4.882812 -7.984375 4.398438 -7.722656 4.078125 -7.203125 C 3.765625 -6.679688 3.609375 -5.925781 3.609375 -4.9375 C 3.609375 -2.976562 4.257812 -2 5.5625 -2 Z M 5.5625 -2 "/></g></g></g><g fill="#babccb" fill-opacity="1"><g transform="translate(95.534618, 43.048498)"><g><path d="M 2.140625 -10.125 C 2.710938 -10.125 3.175781 -10.035156 3.53125 -9.859375 C 3.882812 -9.679688 4.175781 -9.398438 4.40625 -9.015625 C 4.644531 -8.640625 4.859375 -8.15625 5.046875 -7.5625 L 5.71875 -5.578125 L 8.203125 -10 L 10.953125 -10 L 6.890625 -3.1875 L 8.625 1.0625 C 8.789062 1.46875 8.984375 1.742188 9.203125 1.890625 C 9.429688 2.035156 9.710938 2.109375 10.046875 2.109375 C 10.179688 2.109375 10.316406 2.097656 10.453125 2.078125 C 10.585938 2.066406 10.753906 2.039062 10.953125 2 L 10.953125 4.125 C 10.691406 4.207031 10.429688 4.269531 10.171875 4.3125 C 9.910156 4.363281 9.59375 4.390625 9.21875 4.390625 C 8.40625 4.390625 7.769531 4.171875 7.3125 3.734375 C 6.851562 3.296875 6.484375 2.644531 6.203125 1.78125 L 5.28125 -1.140625 L 2.46875 4.390625 L -0.4375 4.390625 L 4.046875 -3.515625 L 2.859375 -6.671875 C 2.679688 -7.128906 2.476562 -7.4375 2.25 -7.59375 C 2.03125 -7.757812 1.78125 -7.84375 1.5 -7.84375 C 1.375 -7.84375 1.21875 -7.828125 1.03125 -7.796875 C 0.851562 -7.773438 0.664062 -7.734375 0.46875 -7.671875 L 0.46875 -9.859375 C 0.726562 -9.929688 0.992188 -9.992188 1.265625 -10.046875 C 1.535156 -10.097656 1.828125 -10.125 2.140625 -10.125 Z M 2.140625 -10.125 "/></g></g></g><g fill="#babccb" fill-opacity="1"><g transform="translate(106.373958, 43.048498)"><g><path d="M 7.515625 -6.15625 L 7.515625 -4.265625 L 6 -4.265625 C 5.0625 -4.265625 4.390625 -4.160156 3.984375 -3.953125 C 3.585938 -3.742188 3.390625 -3.441406 3.390625 -3.046875 C 3.390625 -2.710938 3.570312 -2.441406 3.9375 -2.234375 C 4.300781 -2.023438 4.914062 -1.921875 5.78125 -1.921875 C 6.53125 -1.921875 7.222656 -2 7.859375 -2.15625 C 8.503906 -2.320312 9.039062 -2.5 9.46875 -2.6875 L 9.46875 -0.515625 C 9.019531 -0.304688 8.460938 -0.132812 7.796875 0 C 7.140625 0.125 6.398438 0.1875 5.578125 0.1875 C 3.859375 0.1875 2.613281 -0.078125 1.84375 -0.609375 C 1.082031 -1.148438 0.703125 -1.867188 0.703125 -2.765625 C 0.703125 -3.492188 0.921875 -4.039062 1.359375 -4.40625 C 1.804688 -4.78125 2.394531 -5.035156 3.125 -5.171875 L 3.125 -5.25 C 2.476562 -5.394531 2 -5.664062 1.6875 -6.0625 C 1.382812 -6.46875 1.234375 -6.96875 1.234375 -7.5625 C 1.234375 -8.195312 1.425781 -8.707031 1.8125 -9.09375 C 2.207031 -9.476562 2.734375 -9.753906 3.390625 -9.921875 C 4.046875 -10.097656 4.773438 -10.1875 5.578125 -10.1875 C 6.273438 -10.1875 6.972656 -10.117188 7.671875 -9.984375 C 8.367188 -9.847656 8.972656 -9.664062 9.484375 -9.4375 L 8.640625 -7.453125 C 8.203125 -7.640625 7.75 -7.804688 7.28125 -7.953125 C 6.8125 -8.097656 6.269531 -8.171875 5.65625 -8.171875 C 4.320312 -8.171875 3.65625 -7.859375 3.65625 -7.234375 C 3.65625 -6.835938 3.851562 -6.554688 4.25 -6.390625 C 4.65625 -6.234375 5.285156 -6.15625 6.140625 -6.15625 Z M 4.734375 -11.09375 L 4.734375 -11.375 C 4.828125 -11.65625 4.921875 -11.988281 5.015625 -12.375 C 5.109375 -12.757812 5.195312 -13.140625 5.28125 -13.515625 C 5.375 -13.898438 5.4375 -14.253906 5.46875 -14.578125 L 8 -14.578125 L 8 -14.359375 C 7.789062 -13.878906 7.546875 -13.359375 7.265625 -12.796875 C 6.984375 -12.234375 6.671875 -11.664062 6.328125 -11.09375 Z M 4.734375 -11.09375 "/></g></g></g><g fill="#babccb" fill-opacity="1"><g transform="translate(116.535834, 43.048498)"><g><path d="M 5.828125 -10.1875 C 6.929688 -10.1875 7.992188 -9.945312 9.015625 -9.46875 L 8.21875 -7.390625 C 7.769531 -7.566406 7.335938 -7.707031 6.921875 -7.8125 C 6.515625 -7.925781 6.125 -7.984375 5.75 -7.984375 C 4.988281 -7.984375 4.441406 -7.6875 4.109375 -7.09375 C 3.773438 -6.507812 3.609375 -5.640625 3.609375 -4.484375 C 3.609375 -3.929688 3.710938 -3.507812 3.921875 -3.21875 C 4.128906 -2.9375 4.425781 -2.722656 4.8125 -2.578125 C 5.195312 -2.441406 5.640625 -2.320312 6.140625 -2.21875 C 7.222656 -1.988281 7.972656 -1.671875 8.390625 -1.265625 C 8.816406 -0.859375 9.03125 -0.367188 9.03125 0.203125 C 9.03125 0.753906 8.898438 1.3125 8.640625 1.875 C 8.390625 2.445312 8.109375 2.953125 7.796875 3.390625 L 5.046875 3.390625 C 5.390625 2.890625 5.695312 2.378906 5.96875 1.859375 C 6.238281 1.335938 6.375 0.921875 6.375 0.609375 C 6.375 0.441406 6.28125 0.285156 6.09375 0.140625 C 5.90625 -0.00390625 5.460938 -0.144531 4.765625 -0.28125 C 3.546875 -0.507812 2.582031 -0.960938 1.875 -1.640625 C 1.175781 -2.328125 0.828125 -3.25 0.828125 -4.40625 C 0.828125 -5.875 1.03125 -7.023438 1.4375 -7.859375 C 1.851562 -8.703125 2.4375 -9.300781 3.1875 -9.65625 C 3.945312 -10.007812 4.828125 -10.1875 5.828125 -10.1875 Z M 5.828125 -10.1875 "/></g></g></g></svg>