<svg xmlns="http://www.w3.org/2000/svg" xmlns:xlink="http://www.w3.org/1999/xlink" width="194" zoomAndPan="magnify" viewBox="0 0 145.5 55.5" height="74" preserveAspectRatio="xMidYMid meet" version="1.0"><defs><g/></defs><g fill="#babccb" fill-opacity="1"><g transform="translate(16.929832, 21.267003)"><g><path d="M 6.328125 0 L 3.703125 0 L 3.703125 -10.1875 L 0.34375 -10.1875 L 0.34375 -12.375 L 9.6875 -12.375 L 9.6875 -10.1875 L 6.328125 -10.1875 Z M 6.328125 0 "/></g></g></g><g fill="#babccb" fill-opacity="1"><g transform="translate(26.95932, 21.267003)"><g><path d="M 9.921875 -4.734375 C 9.921875 -3.160156 9.566406 -1.945312 8.859375 -1.09375 C 8.160156 -0.25 7.210938 0.171875 6.015625 0.171875 C 5.578125 0.171875 5.148438 0.109375 4.734375 -0.015625 C 4.316406 -0.140625 3.953125 -0.296875 3.640625 -0.484375 L 3.484375 -0.484375 C 3.484375 -0.484375 3.492188 -0.363281 3.515625 -0.125 C 3.535156 0.101562 3.554688 0.394531 3.578125 0.75 C 3.609375 1.101562 3.625 1.445312 3.625 1.78125 L 3.625 4.15625 L 1.015625 4.15625 L 1.015625 -4.75 C 1.015625 -6.289062 1.40625 -7.488281 2.1875 -8.34375 C 2.976562 -9.207031 4.09375 -9.640625 5.53125 -9.640625 C 6.375 -9.640625 7.125 -9.441406 7.78125 -9.046875 C 8.445312 -8.660156 8.96875 -8.101562 9.34375 -7.375 C 9.726562 -6.65625 9.921875 -5.773438 9.921875 -4.734375 Z M 5.46875 -7.5625 C 4.851562 -7.5625 4.390625 -7.351562 4.078125 -6.9375 C 3.773438 -6.519531 3.625 -5.832031 3.625 -4.875 L 3.625 -2.640625 C 3.863281 -2.390625 4.144531 -2.203125 4.46875 -2.078125 C 4.800781 -1.960938 5.132812 -1.90625 5.46875 -1.90625 C 6.125 -1.90625 6.585938 -2.125 6.859375 -2.5625 C 7.140625 -3 7.28125 -3.722656 7.28125 -4.734375 C 7.28125 -5.734375 7.140625 -6.453125 6.859375 -6.890625 C 6.585938 -7.335938 6.125 -7.5625 5.46875 -7.5625 Z M 5.46875 -7.5625 "/></g></g></g><g fill="#babccb" fill-opacity="1"><g transform="translate(37.664373, 21.267003)"><g><path d="M 4.484375 0.171875 C 3.378906 0.171875 2.484375 -0.238281 1.796875 -1.0625 C 1.117188 -1.882812 0.78125 -3.097656 0.78125 -4.703125 C 0.78125 -6.304688 1.128906 -7.523438 1.828125 -8.359375 C 2.523438 -9.191406 3.472656 -9.609375 4.671875 -9.609375 C 5.347656 -9.609375 5.898438 -9.488281 6.328125 -9.25 C 6.753906 -9.019531 7.113281 -8.671875 7.40625 -8.203125 L 7.515625 -8.203125 C 7.566406 -8.390625 7.640625 -8.601562 7.734375 -8.84375 C 7.835938 -9.082031 7.957031 -9.289062 8.09375 -9.46875 L 10.21875 -9.46875 C 10.09375 -9.09375 9.957031 -8.550781 9.8125 -7.84375 C 9.675781 -7.144531 9.609375 -6.40625 9.609375 -5.625 L 9.609375 -3 C 9.609375 -2.601562 9.679688 -2.335938 9.828125 -2.203125 C 9.972656 -2.066406 10.140625 -2 10.328125 -2 C 10.410156 -2 10.503906 -2.003906 10.609375 -2.015625 C 10.710938 -2.035156 10.785156 -2.054688 10.828125 -2.078125 L 10.828125 -0.046875 C 10.742188 0.00390625 10.578125 0.0507812 10.328125 0.09375 C 10.078125 0.144531 9.859375 0.171875 9.671875 0.171875 C 9.085938 0.171875 8.617188 0.0664062 8.265625 -0.140625 C 7.910156 -0.347656 7.632812 -0.71875 7.4375 -1.25 L 7.265625 -1.25 C 6.992188 -0.851562 6.640625 -0.515625 6.203125 -0.234375 C 5.765625 0.0351562 5.191406 0.171875 4.484375 0.171875 Z M 5.265625 -1.890625 C 5.984375 -1.890625 6.476562 -2.101562 6.75 -2.53125 C 7.03125 -2.96875 7.179688 -3.660156 7.203125 -4.609375 L 7.203125 -4.71875 C 7.203125 -5.632812 7.0625 -6.335938 6.78125 -6.828125 C 6.5 -7.316406 5.984375 -7.5625 5.234375 -7.5625 C 4.617188 -7.5625 4.160156 -7.3125 3.859375 -6.8125 C 3.554688 -6.320312 3.40625 -5.609375 3.40625 -4.671875 C 3.40625 -2.816406 4.023438 -1.890625 5.265625 -1.890625 Z M 5.265625 -1.890625 "/></g></g></g><g fill="#babccb" fill-opacity="1"><g transform="translate(48.87176, 21.267003)"><g><path d="M 5.5625 0.15625 C 4.425781 0.15625 3.539062 -0.0390625 2.90625 -0.4375 C 2.28125 -0.84375 1.84375 -1.378906 1.59375 -2.046875 C 1.34375 -2.710938 1.21875 -3.46875 1.21875 -4.3125 L 1.21875 -9.46875 L 3.796875 -9.46875 L 3.796875 -4.234375 C 3.796875 -3.410156 3.941406 -2.816406 4.234375 -2.453125 C 4.523438 -2.085938 5 -1.90625 5.65625 -1.90625 C 6.320312 -1.90625 6.820312 -2.148438 7.15625 -2.640625 C 7.5 -3.140625 7.671875 -3.992188 7.671875 -5.203125 C 7.671875 -5.941406 7.613281 -6.644531 7.5 -7.3125 C 7.394531 -7.976562 7.25 -8.695312 7.0625 -9.46875 L 9.671875 -9.46875 C 9.859375 -8.707031 10.003906 -7.992188 10.109375 -7.328125 C 10.210938 -6.671875 10.265625 -5.9375 10.265625 -5.125 C 10.265625 -3.300781 9.863281 -1.960938 9.0625 -1.109375 C 8.257812 -0.265625 7.09375 0.15625 5.5625 0.15625 Z M 5.5625 0.15625 "/></g></g></g><g fill="#babccb" fill-opacity="1"><g transform="translate(60.044504, 21.267003)"><g><path d="M 10.078125 -9.46875 L 10.078125 0 L 8.125 0 L 7.765625 -1.265625 L 7.640625 -1.265625 C 7.410156 -0.785156 7.125 -0.425781 6.78125 -0.1875 C 6.4375 0.0507812 6.019531 0.171875 5.53125 0.171875 C 4.820312 0.171875 4.28125 -0.0820312 3.90625 -0.59375 L 3.84375 -0.59375 C 3.863281 -0.476562 3.878906 -0.296875 3.890625 -0.046875 C 3.910156 0.203125 3.921875 0.460938 3.921875 0.734375 C 3.929688 1.003906 3.9375 1.242188 3.9375 1.453125 L 3.9375 4.15625 L 1.359375 4.15625 L 1.359375 -9.46875 L 3.9375 -9.46875 L 3.9375 -3.9375 C 3.9375 -2.570312 4.445312 -1.890625 5.46875 -1.890625 C 6.25 -1.890625 6.78125 -2.15625 7.0625 -2.6875 C 7.351562 -3.226562 7.5 -4 7.5 -5 L 7.5 -9.46875 Z M 10.078125 -9.46875 "/></g></g></g><g fill="#babccb" fill-opacity="1"><g transform="translate(71.477085, 21.267003)"><g><path d="M 4.484375 0.171875 C 3.378906 0.171875 2.484375 -0.238281 1.796875 -1.0625 C 1.117188 -1.882812 0.78125 -3.097656 0.78125 -4.703125 C 0.78125 -6.304688 1.128906 -7.523438 1.828125 -8.359375 C 2.523438 -9.191406 3.472656 -9.609375 4.671875 -9.609375 C 5.347656 -9.609375 5.898438 -9.488281 6.328125 -9.25 C 6.753906 -9.019531 7.113281 -8.671875 7.40625 -8.203125 L 7.515625 -8.203125 C 7.566406 -8.390625 7.640625 -8.601562 7.734375 -8.84375 C 7.835938 -9.082031 7.957031 -9.289062 8.09375 -9.46875 L 10.21875 -9.46875 C 10.09375 -9.09375 9.957031 -8.550781 9.8125 -7.84375 C 9.675781 -7.144531 9.609375 -6.40625 9.609375 -5.625 L 9.609375 -3 C 9.609375 -2.601562 9.679688 -2.335938 9.828125 -2.203125 C 9.972656 -2.066406 10.140625 -2 10.328125 -2 C 10.410156 -2 10.503906 -2.003906 10.609375 -2.015625 C 10.710938 -2.035156 10.785156 -2.054688 10.828125 -2.078125 L 10.828125 -0.046875 C 10.742188 0.00390625 10.578125 0.0507812 10.328125 0.09375 C 10.078125 0.144531 9.859375 0.171875 9.671875 0.171875 C 9.085938 0.171875 8.617188 0.0664062 8.265625 -0.140625 C 7.910156 -0.347656 7.632812 -0.71875 7.4375 -1.25 L 7.265625 -1.25 C 6.992188 -0.851562 6.640625 -0.515625 6.203125 -0.234375 C 5.765625 0.0351562 5.191406 0.171875 4.484375 0.171875 Z M 5.265625 -1.890625 C 5.984375 -1.890625 6.476562 -2.101562 6.75 -2.53125 C 7.03125 -2.96875 7.179688 -3.660156 7.203125 -4.609375 L 7.203125 -4.71875 C 7.203125 -5.632812 7.0625 -6.335938 6.78125 -6.828125 C 6.5 -7.316406 5.984375 -7.5625 5.234375 -7.5625 C 4.617188 -7.5625 4.160156 -7.3125 3.859375 -6.8125 C 3.554688 -6.320312 3.40625 -5.609375 3.40625 -4.671875 C 3.40625 -2.816406 4.023438 -1.890625 5.265625 -1.890625 Z M 5.265625 -1.890625 "/></g></g></g><g fill="#babccb" fill-opacity="1"><g transform="translate(82.684472, 21.267003)"><g><path d="M 8.65625 -9.46875 L 8.65625 -7.515625 L 5.296875 -7.515625 L 5.296875 -2.96875 C 5.296875 -2.601562 5.398438 -2.332031 5.609375 -2.15625 C 5.816406 -1.976562 6.085938 -1.890625 6.421875 -1.890625 C 6.710938 -1.890625 6.988281 -1.914062 7.25 -1.96875 C 7.519531 -2.019531 7.789062 -2.09375 8.0625 -2.1875 L 8.0625 -0.265625 C 7.789062 -0.128906 7.460938 -0.0234375 7.078125 0.046875 C 6.703125 0.128906 6.289062 0.171875 5.84375 0.171875 C 5.25 0.171875 4.710938 0.0820312 4.234375 -0.09375 C 3.765625 -0.28125 3.394531 -0.597656 3.125 -1.046875 C 2.851562 -1.503906 2.71875 -2.144531 2.71875 -2.96875 L 2.71875 -7.515625 L 0.34375 -7.515625 L 0.34375 -8.59375 L 1.84375 -9.46875 Z M 8.65625 -9.46875 "/></g></g></g><g fill="#babccb" fill-opacity="1"><g transform="translate(92.003753, 21.267003)"><g><path d="M 3.9375 -9.46875 L 3.9375 -2.96875 C 3.9375 -2.601562 4.039062 -2.332031 4.25 -2.15625 C 4.457031 -1.976562 4.726562 -1.890625 5.0625 -1.890625 C 5.351562 -1.890625 5.628906 -1.914062 5.890625 -1.96875 C 6.160156 -2.019531 6.425781 -2.09375 6.6875 -2.1875 L 6.6875 -0.265625 C 6.4375 -0.128906 6.113281 -0.0234375 5.71875 0.046875 C 5.332031 0.128906 4.914062 0.171875 4.46875 0.171875 C 3.882812 0.171875 3.359375 0.0820312 2.890625 -0.09375 C 2.421875 -0.28125 2.046875 -0.597656 1.765625 -1.046875 C 1.492188 -1.503906 1.359375 -2.144531 1.359375 -2.96875 L 1.359375 -9.46875 Z M 3.9375 -9.46875 "/></g></g></g><g fill="#babccb" fill-opacity="1"><g transform="translate(99.053842, 21.267003)"><g><path d="M 10.515625 -9.46875 L 6.796875 -5.125 L 10.75 0 L 7.796875 0 L 5.140625 -3.609375 L 3.9375 -2.84375 L 3.9375 0 L 1.359375 0 L 1.359375 -9.46875 L 3.9375 -9.46875 L 3.9375 -6.984375 C 3.925781 -6.640625 3.921875 -6.289062 3.921875 -5.9375 C 3.921875 -5.59375 3.90625 -5.253906 3.875 -4.921875 L 3.921875 -4.921875 C 4.109375 -5.160156 4.300781 -5.398438 4.5 -5.640625 C 4.695312 -5.878906 4.898438 -6.117188 5.109375 -6.359375 L 7.765625 -9.46875 Z M 10.515625 -9.46875 "/></g></g></g><g fill="#babccb" fill-opacity="1"><g transform="translate(109.793537, 21.267003)"><g><path d="M 7.109375 -5.828125 L 7.109375 -4.03125 L 5.6875 -4.03125 C 4.789062 -4.03125 4.148438 -3.929688 3.765625 -3.734375 C 3.390625 -3.546875 3.203125 -3.257812 3.203125 -2.875 C 3.203125 -2.5625 3.375 -2.304688 3.71875 -2.109375 C 4.070312 -1.910156 4.65625 -1.8125 5.46875 -1.8125 C 6.175781 -1.8125 6.832031 -1.882812 7.4375 -2.03125 C 8.050781 -2.1875 8.554688 -2.359375 8.953125 -2.546875 L 8.953125 -0.484375 C 8.523438 -0.285156 8 -0.125 7.375 0 C 6.757812 0.113281 6.0625 0.171875 5.28125 0.171875 C 3.65625 0.171875 2.476562 -0.0820312 1.75 -0.59375 C 1.019531 -1.101562 0.65625 -1.773438 0.65625 -2.609375 C 0.65625 -3.304688 0.863281 -3.828125 1.28125 -4.171875 C 1.707031 -4.523438 2.269531 -4.765625 2.96875 -4.890625 L 2.96875 -4.96875 C 2.351562 -5.113281 1.894531 -5.375 1.59375 -5.75 C 1.300781 -6.125 1.15625 -6.59375 1.15625 -7.15625 C 1.15625 -7.757812 1.335938 -8.242188 1.703125 -8.609375 C 2.078125 -8.972656 2.578125 -9.234375 3.203125 -9.390625 C 3.828125 -9.554688 4.519531 -9.640625 5.28125 -9.640625 C 5.9375 -9.640625 6.59375 -9.570312 7.25 -9.4375 C 7.914062 -9.3125 8.488281 -9.140625 8.96875 -8.921875 L 8.171875 -7.046875 C 7.765625 -7.222656 7.335938 -7.378906 6.890625 -7.515625 C 6.441406 -7.660156 5.929688 -7.734375 5.359375 -7.734375 C 4.097656 -7.734375 3.46875 -7.4375 3.46875 -6.84375 C 3.46875 -6.476562 3.65625 -6.21875 4.03125 -6.0625 C 4.40625 -5.90625 5 -5.828125 5.8125 -5.828125 Z M 4.5 -10.5 L 4.5 -10.765625 C 4.570312 -11.023438 4.65625 -11.335938 4.75 -11.703125 C 4.84375 -12.066406 4.929688 -12.429688 5.015625 -12.796875 C 5.097656 -13.160156 5.15625 -13.492188 5.1875 -13.796875 L 7.578125 -13.796875 L 7.578125 -13.578125 C 7.378906 -13.128906 7.144531 -12.640625 6.875 -12.109375 C 6.613281 -11.578125 6.320312 -11.039062 6 -10.5 Z M 4.5 -10.5 "/></g></g></g><g fill="#babccb" fill-opacity="1"><g transform="translate(119.407297, 21.267003)"><g><path d="M 5.515625 -9.640625 C 6.566406 -9.640625 7.570312 -9.410156 8.53125 -8.953125 L 7.78125 -7 C 7.351562 -7.164062 6.945312 -7.300781 6.5625 -7.40625 C 6.175781 -7.507812 5.800781 -7.5625 5.4375 -7.5625 C 4.71875 -7.5625 4.195312 -7.28125 3.875 -6.71875 C 3.5625 -6.164062 3.40625 -5.34375 3.40625 -4.25 C 3.40625 -3.726562 3.503906 -3.332031 3.703125 -3.0625 C 3.898438 -2.789062 4.179688 -2.585938 4.546875 -2.453125 C 4.910156 -2.316406 5.332031 -2.195312 5.8125 -2.09375 C 6.832031 -1.875 7.539062 -1.570312 7.9375 -1.1875 C 8.34375 -0.8125 8.546875 -0.351562 8.546875 0.1875 C 8.546875 0.707031 8.421875 1.234375 8.171875 1.765625 C 7.929688 2.304688 7.664062 2.785156 7.375 3.203125 L 4.78125 3.203125 C 5.101562 2.734375 5.390625 2.25 5.640625 1.75 C 5.898438 1.257812 6.03125 0.867188 6.03125 0.578125 C 6.03125 0.421875 5.941406 0.273438 5.765625 0.140625 C 5.585938 0.00390625 5.164062 -0.128906 4.5 -0.265625 C 3.34375 -0.484375 2.429688 -0.914062 1.765625 -1.5625 C 1.109375 -2.207031 0.78125 -3.078125 0.78125 -4.171875 C 0.78125 -5.554688 0.972656 -6.644531 1.359375 -7.4375 C 1.753906 -8.226562 2.304688 -8.789062 3.015625 -9.125 C 3.734375 -9.46875 4.566406 -9.640625 5.515625 -9.640625 Z M 5.515625 -9.640625 "/></g></g></g><g fill="#babccb" fill-opacity="1"><g transform="translate(29.470216, 45.51776)"><g><path d="M 8.6875 0 L 1.5625 0 L 1.5625 -12.375 L 8.6875 -12.375 L 8.6875 -10.21875 L 4.171875 -10.21875 L 4.171875 -7.5 L 8.375 -7.5 L 8.375 -5.359375 L 4.171875 -5.359375 L 4.171875 -2.171875 L 8.6875 -2.171875 Z M 8.6875 0 "/></g></g></g><g fill="#babccb" fill-opacity="1"><g transform="translate(39.170583, 45.51776)"><g><path d="M 10.078125 -9.46875 L 10.078125 0 L 8.125 0 L 7.765625 -1.265625 L 7.640625 -1.265625 C 7.410156 -0.785156 7.125 -0.425781 6.78125 -0.1875 C 6.4375 0.0507812 6.019531 0.171875 5.53125 0.171875 C 4.820312 0.171875 4.28125 -0.0820312 3.90625 -0.59375 L 3.84375 -0.59375 C 3.863281 -0.476562 3.878906 -0.296875 3.890625 -0.046875 C 3.910156 0.203125 3.921875 0.460938 3.921875 0.734375 C 3.929688 1.003906 3.9375 1.242188 3.9375 1.453125 L 3.9375 4.15625 L 1.359375 4.15625 L 1.359375 -9.46875 L 3.9375 -9.46875 L 3.9375 -3.9375 C 3.9375 -2.570312 4.445312 -1.890625 5.46875 -1.890625 C 6.25 -1.890625 6.78125 -2.15625 7.0625 -2.6875 C 7.351562 -3.226562 7.5 -4 7.5 -5 L 7.5 -9.46875 Z M 10.078125 -9.46875 "/></g></g></g><g fill="#babccb" fill-opacity="1"><g transform="translate(50.603163, 45.51776)"><g><path d="M 11.90625 -9.671875 L 11.90625 -7.421875 L 10.6875 -7.421875 L 10.6875 0 L 7.734375 0 L 7.734375 -7.421875 L 4.515625 -7.421875 L 4.515625 0 L 1.5625 0 L 1.5625 -7.421875 L 0.34375 -7.421875 L 0.34375 -9.671875 Z M 11.90625 -9.671875 "/></g></g></g><g fill="#babccb" fill-opacity="1"><g transform="translate(62.849879, 45.51776)"><g><path d="M 7.109375 -5.828125 L 7.109375 -4.03125 L 5.6875 -4.03125 C 4.789062 -4.03125 4.148438 -3.929688 3.765625 -3.734375 C 3.390625 -3.546875 3.203125 -3.257812 3.203125 -2.875 C 3.203125 -2.5625 3.375 -2.304688 3.71875 -2.109375 C 4.070312 -1.910156 4.65625 -1.8125 5.46875 -1.8125 C 6.175781 -1.8125 6.832031 -1.882812 7.4375 -2.03125 C 8.050781 -2.1875 8.554688 -2.359375 8.953125 -2.546875 L 8.953125 -0.484375 C 8.523438 -0.285156 8 -0.125 7.375 0 C 6.757812 0.113281 6.0625 0.171875 5.28125 0.171875 C 3.65625 0.171875 2.476562 -0.0820312 1.75 -0.59375 C 1.019531 -1.101562 0.65625 -1.773438 0.65625 -2.609375 C 0.65625 -3.304688 0.863281 -3.828125 1.28125 -4.171875 C 1.707031 -4.523438 2.269531 -4.765625 2.96875 -4.890625 L 2.96875 -4.96875 C 2.351562 -5.113281 1.894531 -5.375 1.59375 -5.75 C 1.300781 -6.125 1.15625 -6.59375 1.15625 -7.15625 C 1.15625 -7.757812 1.335938 -8.242188 1.703125 -8.609375 C 2.078125 -8.972656 2.578125 -9.234375 3.203125 -9.390625 C 3.828125 -9.554688 4.519531 -9.640625 5.28125 -9.640625 C 5.9375 -9.640625 6.59375 -9.570312 7.25 -9.4375 C 7.914062 -9.3125 8.488281 -9.140625 8.96875 -8.921875 L 8.171875 -7.046875 C 7.765625 -7.222656 7.335938 -7.378906 6.890625 -7.515625 C 6.441406 -7.660156 5.929688 -7.734375 5.359375 -7.734375 C 4.097656 -7.734375 3.46875 -7.4375 3.46875 -6.84375 C 3.46875 -6.476562 3.65625 -6.21875 4.03125 -6.0625 C 4.40625 -5.90625 5 -5.828125 5.8125 -5.828125 Z M 7.109375 -5.828125 "/></g></g></g><g fill="#babccb" fill-opacity="1"><g transform="translate(72.463639, 45.51776)"><g><path d="M 3.9375 -9.46875 L 3.9375 -2.96875 C 3.9375 -2.601562 4.039062 -2.332031 4.25 -2.15625 C 4.457031 -1.976562 4.726562 -1.890625 5.0625 -1.890625 C 5.351562 -1.890625 5.628906 -1.914062 5.890625 -1.96875 C 6.160156 -2.019531 6.425781 -2.09375 6.6875 -2.1875 L 6.6875 -0.265625 C 6.4375 -0.128906 6.113281 -0.0234375 5.71875 0.046875 C 5.332031 0.128906 4.914062 0.171875 4.46875 0.171875 C 3.882812 0.171875 3.359375 0.0820312 2.890625 -0.09375 C 2.421875 -0.28125 2.046875 -0.597656 1.765625 -1.046875 C 1.492188 -1.503906 1.359375 -2.144531 1.359375 -2.96875 L 1.359375 -9.46875 Z M 3.9375 -9.46875 "/></g></g></g><g fill="#babccb" fill-opacity="1"><g transform="translate(79.513729, 45.51776)"><g><path d="M 9.921875 -4.734375 C 9.921875 -3.160156 9.566406 -1.945312 8.859375 -1.09375 C 8.160156 -0.25 7.210938 0.171875 6.015625 0.171875 C 5.578125 0.171875 5.148438 0.109375 4.734375 -0.015625 C 4.316406 -0.140625 3.953125 -0.296875 3.640625 -0.484375 L 3.484375 -0.484375 C 3.484375 -0.484375 3.492188 -0.363281 3.515625 -0.125 C 3.535156 0.101562 3.554688 0.394531 3.578125 0.75 C 3.609375 1.101562 3.625 1.445312 3.625 1.78125 L 3.625 4.15625 L 1.015625 4.15625 L 1.015625 -4.75 C 1.015625 -6.289062 1.40625 -7.488281 2.1875 -8.34375 C 2.976562 -9.207031 4.09375 -9.640625 5.53125 -9.640625 C 6.375 -9.640625 7.125 -9.441406 7.78125 -9.046875 C 8.445312 -8.660156 8.96875 -8.101562 9.34375 -7.375 C 9.726562 -6.65625 9.921875 -5.773438 9.921875 -4.734375 Z M 5.46875 -7.5625 C 4.851562 -7.5625 4.390625 -7.351562 4.078125 -6.9375 C 3.773438 -6.519531 3.625 -5.832031 3.625 -4.875 L 3.625 -2.640625 C 3.863281 -2.390625 4.144531 -2.203125 4.46875 -2.078125 C 4.800781 -1.960938 5.132812 -1.90625 5.46875 -1.90625 C 6.125 -1.90625 6.585938 -2.125 6.859375 -2.5625 C 7.140625 -3 7.28125 -3.722656 7.28125 -4.734375 C 7.28125 -5.734375 7.140625 -6.453125 6.859375 -6.890625 C 6.585938 -7.335938 6.125 -7.5625 5.46875 -7.5625 Z M 5.46875 -7.5625 "/></g></g></g><g fill="#babccb" fill-opacity="1"><g transform="translate(90.218781, 45.51776)"><g><path d="M 3.9375 -9.46875 L 3.9375 -2.96875 C 3.9375 -2.601562 4.039062 -2.332031 4.25 -2.15625 C 4.457031 -1.976562 4.726562 -1.890625 5.0625 -1.890625 C 5.351562 -1.890625 5.628906 -1.914062 5.890625 -1.96875 C 6.160156 -2.019531 6.425781 -2.09375 6.6875 -2.1875 L 6.6875 -0.265625 C 6.4375 -0.128906 6.113281 -0.0234375 5.71875 0.046875 C 5.332031 0.128906 4.914062 0.171875 4.46875 0.171875 C 3.882812 0.171875 3.359375 0.0820312 2.890625 -0.09375 C 2.421875 -0.28125 2.046875 -0.597656 1.765625 -1.046875 C 1.492188 -1.503906 1.359375 -2.144531 1.359375 -2.96875 L 1.359375 -9.46875 Z M 1.84375 -10.5 L 1.84375 -10.765625 C 1.914062 -11.023438 2 -11.335938 2.09375 -11.703125 C 2.1875 -12.066406 2.273438 -12.429688 2.359375 -12.796875 C 2.441406 -13.160156 2.5 -13.492188 2.53125 -13.796875 L 4.921875 -13.796875 L 4.921875 -13.578125 C 4.722656 -13.128906 4.488281 -12.640625 4.21875 -12.109375 C 3.957031 -11.578125 3.664062 -11.039062 3.34375 -10.5 Z M 1.84375 -10.5 "/></g></g></g><g fill="#babccb" fill-opacity="1"><g transform="translate(97.268871, 45.51776)"><g><path d="M 7.109375 -5.828125 L 7.109375 -4.03125 L 5.6875 -4.03125 C 4.789062 -4.03125 4.148438 -3.929688 3.765625 -3.734375 C 3.390625 -3.546875 3.203125 -3.257812 3.203125 -2.875 C 3.203125 -2.5625 3.375 -2.304688 3.71875 -2.109375 C 4.070312 -1.910156 4.65625 -1.8125 5.46875 -1.8125 C 6.175781 -1.8125 6.832031 -1.882812 7.4375 -2.03125 C 8.050781 -2.1875 8.554688 -2.359375 8.953125 -2.546875 L 8.953125 -0.484375 C 8.523438 -0.285156 8 -0.125 7.375 0 C 6.757812 0.113281 6.0625 0.171875 5.28125 0.171875 C 3.65625 0.171875 2.476562 -0.0820312 1.75 -0.59375 C 1.019531 -1.101562 0.65625 -1.773438 0.65625 -2.609375 C 0.65625 -3.304688 0.863281 -3.828125 1.28125 -4.171875 C 1.707031 -4.523438 2.269531 -4.765625 2.96875 -4.890625 L 2.96875 -4.96875 C 2.351562 -5.113281 1.894531 -5.375 1.59375 -5.75 C 1.300781 -6.125 1.15625 -6.59375 1.15625 -7.15625 C 1.15625 -7.757812 1.335938 -8.242188 1.703125 -8.609375 C 2.078125 -8.972656 2.578125 -9.234375 3.203125 -9.390625 C 3.828125 -9.554688 4.519531 -9.640625 5.28125 -9.640625 C 5.9375 -9.640625 6.59375 -9.570312 7.25 -9.4375 C 7.914062 -9.3125 8.488281 -9.140625 8.96875 -8.921875 L 8.171875 -7.046875 C 7.765625 -7.222656 7.335938 -7.378906 6.890625 -7.515625 C 6.441406 -7.660156 5.929688 -7.734375 5.359375 -7.734375 C 4.097656 -7.734375 3.46875 -7.4375 3.46875 -6.84375 C 3.46875 -6.476562 3.65625 -6.21875 4.03125 -6.0625 C 4.40625 -5.90625 5 -5.828125 5.8125 -5.828125 Z M 7.109375 -5.828125 "/></g></g></g><g fill="#babccb" fill-opacity="1"><g transform="translate(106.882631, 45.51776)"><g><path d="M 5.515625 -9.640625 C 6.566406 -9.640625 7.570312 -9.410156 8.53125 -8.953125 L 7.78125 -7 C 7.351562 -7.164062 6.945312 -7.300781 6.5625 -7.40625 C 6.175781 -7.507812 5.800781 -7.5625 5.4375 -7.5625 C 4.71875 -7.5625 4.195312 -7.28125 3.875 -6.71875 C 3.5625 -6.164062 3.40625 -5.34375 3.40625 -4.25 C 3.40625 -3.726562 3.503906 -3.332031 3.703125 -3.0625 C 3.898438 -2.789062 4.179688 -2.585938 4.546875 -2.453125 C 4.910156 -2.316406 5.332031 -2.195312 5.8125 -2.09375 C 6.832031 -1.875 7.539062 -1.570312 7.9375 -1.1875 C 8.34375 -0.8125 8.546875 -0.351562 8.546875 0.1875 C 8.546875 0.707031 8.421875 1.234375 8.171875 1.765625 C 7.929688 2.304688 7.664062 2.785156 7.375 3.203125 L 4.78125 3.203125 C 5.101562 2.734375 5.390625 2.25 5.640625 1.75 C 5.898438 1.257812 6.03125 0.867188 6.03125 0.578125 C 6.03125 0.421875 5.941406 0.273438 5.765625 0.140625 C 5.585938 0.00390625 5.164062 -0.128906 4.5 -0.265625 C 3.34375 -0.484375 2.429688 -0.914062 1.765625 -1.5625 C 1.109375 -2.207031 0.78125 -3.078125 0.78125 -4.171875 C 0.78125 -5.554688 0.972656 -6.644531 1.359375 -7.4375 C 1.753906 -8.226562 2.304688 -8.789062 3.015625 -9.125 C 3.734375 -9.46875 4.566406 -9.640625 5.515625 -9.640625 Z M 5.515625 -9.640625 "/></g></g></g></svg>