<svg xmlns="http://www.w3.org/2000/svg" xmlns:xlink="http://www.w3.org/1999/xlink" width="194" zoomAndPan="magnify" viewBox="0 0 145.5 55.5" height="74" preserveAspectRatio="xMidYMid meet" version="1.0"><defs><g/></defs><g fill="#babccb" fill-opacity="1"><g transform="translate(3.559437, 21.267006)"><g><path d="M 7.1875 -12.421875 L 10.921875 -1.484375 L 10.921875 0 L 0.484375 0 L 0.484375 -1.5 L 4.234375 -12.421875 Z M 8.25 -2.1875 L 6.109375 -8.6875 C 6.078125 -8.757812 6.03125 -8.910156 5.96875 -9.140625 C 5.90625 -9.378906 5.847656 -9.609375 5.796875 -9.828125 C 5.742188 -10.054688 5.710938 -10.207031 5.703125 -10.28125 C 5.691406 -10.207031 5.660156 -10.054688 5.609375 -9.828125 C 5.554688 -9.609375 5.5 -9.378906 5.4375 -9.140625 C 5.375 -8.910156 5.320312 -8.75 5.28125 -8.65625 L 3.15625 -2.1875 Z M 8.25 -2.1875 "/></g></g></g><g fill="#babccb" fill-opacity="1"><g transform="translate(14.957375, 21.267006)"><g><path d="M 3.9375 -9.46875 L 3.9375 -2.96875 C 3.9375 -2.601562 4.039062 -2.332031 4.25 -2.15625 C 4.457031 -1.976562 4.726562 -1.890625 5.0625 -1.890625 C 5.351562 -1.890625 5.628906 -1.914062 5.890625 -1.96875 C 6.160156 -2.019531 6.425781 -2.09375 6.6875 -2.1875 L 6.6875 -0.265625 C 6.4375 -0.128906 6.113281 -0.0234375 5.71875 0.046875 C 5.332031 0.128906 4.914062 0.171875 4.46875 0.171875 C 3.882812 0.171875 3.359375 0.0820312 2.890625 -0.09375 C 2.421875 -0.28125 2.046875 -0.597656 1.765625 -1.046875 C 1.492188 -1.503906 1.359375 -2.144531 1.359375 -2.96875 L 1.359375 -9.46875 Z M 3.9375 -9.46875 "/></g></g></g><g fill="#babccb" fill-opacity="1"><g transform="translate(22.007465, 21.267006)"><g><path d="M 4.484375 0.171875 C 3.378906 0.171875 2.484375 -0.238281 1.796875 -1.0625 C 1.117188 -1.882812 0.78125 -3.097656 0.78125 -4.703125 C 0.78125 -6.304688 1.128906 -7.523438 1.828125 -8.359375 C 2.523438 -9.191406 3.472656 -9.609375 4.671875 -9.609375 C 5.347656 -9.609375 5.898438 -9.488281 6.328125 -9.25 C 6.753906 -9.019531 7.113281 -8.671875 7.40625 -8.203125 L 7.515625 -8.203125 C 7.566406 -8.390625 7.640625 -8.601562 7.734375 -8.84375 C 7.835938 -9.082031 7.957031 -9.289062 8.09375 -9.46875 L 10.21875 -9.46875 C 10.09375 -9.09375 9.957031 -8.550781 9.8125 -7.84375 C 9.675781 -7.144531 9.609375 -6.40625 9.609375 -5.625 L 9.609375 -3 C 9.609375 -2.601562 9.679688 -2.335938 9.828125 -2.203125 C 9.972656 -2.066406 10.140625 -2 10.328125 -2 C 10.410156 -2 10.503906 -2.003906 10.609375 -2.015625 C 10.710938 -2.035156 10.785156 -2.054688 10.828125 -2.078125 L 10.828125 -0.046875 C 10.742188 0.00390625 10.578125 0.0507812 10.328125 0.09375 C 10.078125 0.144531 9.859375 0.171875 9.671875 0.171875 C 9.085938 0.171875 8.617188 0.0664062 8.265625 -0.140625 C 7.910156 -0.347656 7.632812 -0.71875 7.4375 -1.25 L 7.265625 -1.25 C 6.992188 -0.851562 6.640625 -0.515625 6.203125 -0.234375 C 5.765625 0.0351562 5.191406 0.171875 4.484375 0.171875 Z M 5.265625 -1.890625 C 5.984375 -1.890625 6.476562 -2.101562 6.75 -2.53125 C 7.03125 -2.96875 7.179688 -3.660156 7.203125 -4.609375 L 7.203125 -4.71875 C 7.203125 -5.632812 7.0625 -6.335938 6.78125 -6.828125 C 6.5 -7.316406 5.984375 -7.5625 5.234375 -7.5625 C 4.617188 -7.5625 4.160156 -7.3125 3.859375 -6.8125 C 3.554688 -6.320312 3.40625 -5.609375 3.40625 -4.671875 C 3.40625 -2.816406 4.023438 -1.890625 5.265625 -1.890625 Z M 5.265625 -1.890625 "/></g></g></g><g fill="#babccb" fill-opacity="1"><g transform="translate(33.214852, 21.267006)"><g><path d="M 11.90625 -9.671875 L 11.90625 -7.421875 L 10.6875 -7.421875 L 10.6875 0 L 7.734375 0 L 7.734375 -7.421875 L 4.515625 -7.421875 L 4.515625 0 L 1.5625 0 L 1.5625 -7.421875 L 0.34375 -7.421875 L 0.34375 -9.671875 Z M 11.90625 -9.671875 "/></g></g></g><g fill="#babccb" fill-opacity="1"><g transform="translate(45.461568, 21.267006)"><g><path d="M 9.921875 -4.734375 C 9.921875 -3.160156 9.566406 -1.945312 8.859375 -1.09375 C 8.160156 -0.25 7.210938 0.171875 6.015625 0.171875 C 5.578125 0.171875 5.148438 0.109375 4.734375 -0.015625 C 4.316406 -0.140625 3.953125 -0.296875 3.640625 -0.484375 L 3.484375 -0.484375 C 3.484375 -0.484375 3.492188 -0.363281 3.515625 -0.125 C 3.535156 0.101562 3.554688 0.394531 3.578125 0.75 C 3.609375 1.101562 3.625 1.445312 3.625 1.78125 L 3.625 4.15625 L 1.015625 4.15625 L 1.015625 -4.75 C 1.015625 -6.289062 1.40625 -7.488281 2.1875 -8.34375 C 2.976562 -9.207031 4.09375 -9.640625 5.53125 -9.640625 C 6.375 -9.640625 7.125 -9.441406 7.78125 -9.046875 C 8.445312 -8.660156 8.96875 -8.101562 9.34375 -7.375 C 9.726562 -6.65625 9.921875 -5.773438 9.921875 -4.734375 Z M 5.46875 -7.5625 C 4.851562 -7.5625 4.390625 -7.351562 4.078125 -6.9375 C 3.773438 -6.519531 3.625 -5.832031 3.625 -4.875 L 3.625 -2.640625 C 3.863281 -2.390625 4.144531 -2.203125 4.46875 -2.078125 C 4.800781 -1.960938 5.132812 -1.90625 5.46875 -1.90625 C 6.125 -1.90625 6.585938 -2.125 6.859375 -2.5625 C 7.140625 -3 7.28125 -3.722656 7.28125 -4.734375 C 7.28125 -5.734375 7.140625 -6.453125 6.859375 -6.890625 C 6.585938 -7.335938 6.125 -7.5625 5.46875 -7.5625 Z M 5.46875 -7.5625 "/></g></g></g><g fill="#babccb" fill-opacity="1"><g transform="translate(56.16662, 21.267006)"><g><path d="M 9.953125 -4.75 C 9.953125 -3.175781 9.535156 -1.960938 8.703125 -1.109375 C 7.878906 -0.253906 6.757812 0.171875 5.34375 0.171875 C 4.457031 0.171875 3.671875 -0.015625 2.984375 -0.390625 C 2.296875 -0.773438 1.753906 -1.332031 1.359375 -2.0625 C 0.972656 -2.800781 0.78125 -3.695312 0.78125 -4.75 C 0.78125 -6.320312 1.1875 -7.53125 2 -8.375 C 2.820312 -9.21875 3.953125 -9.640625 5.390625 -9.640625 C 6.273438 -9.640625 7.054688 -9.445312 7.734375 -9.0625 C 8.421875 -8.675781 8.960938 -8.117188 9.359375 -7.390625 C 9.753906 -6.671875 9.953125 -5.789062 9.953125 -4.75 Z M 3.40625 -4.75 C 3.40625 -3.8125 3.554688 -3.101562 3.859375 -2.625 C 4.171875 -2.144531 4.675781 -1.90625 5.375 -1.90625 C 6.050781 -1.90625 6.539062 -2.144531 6.84375 -2.625 C 7.15625 -3.101562 7.3125 -3.8125 7.3125 -4.75 C 7.3125 -5.6875 7.15625 -6.390625 6.84375 -6.859375 C 6.539062 -7.328125 6.046875 -7.5625 5.359375 -7.5625 C 4.671875 -7.5625 4.171875 -7.328125 3.859375 -6.859375 C 3.554688 -6.390625 3.40625 -5.6875 3.40625 -4.75 Z M 3.40625 -4.75 "/></g></g></g><g fill="#babccb" fill-opacity="1"><g transform="translate(66.888994, 21.267006)"><g><path d="M 10.078125 -4.015625 C 10.078125 -3.234375 9.898438 -2.523438 9.546875 -1.890625 C 9.191406 -1.253906 8.664062 -0.75 7.96875 -0.375 C 7.28125 -0.0078125 6.425781 0.171875 5.40625 0.171875 C 4.476562 0.171875 3.664062 -0.0078125 2.96875 -0.375 C 2.28125 -0.738281 1.742188 -1.273438 1.359375 -1.984375 C 0.972656 -2.691406 0.78125 -3.566406 0.78125 -4.609375 C 0.78125 -5.765625 0.992188 -6.695312 1.421875 -7.40625 C 1.847656 -8.125 2.460938 -8.648438 3.265625 -8.984375 C 4.066406 -9.316406 5.015625 -9.484375 6.109375 -9.484375 L 10.96875 -9.484375 L 10.96875 -7.59375 L 8.5625 -7.59375 C 8.976562 -7.15625 9.332031 -6.644531 9.625 -6.0625 C 9.925781 -5.488281 10.078125 -4.804688 10.078125 -4.015625 Z M 3.4375 -4.609375 C 3.4375 -3.796875 3.585938 -3.140625 3.890625 -2.640625 C 4.203125 -2.148438 4.71875 -1.90625 5.4375 -1.90625 C 6.144531 -1.90625 6.65625 -2.132812 6.96875 -2.59375 C 7.28125 -3.0625 7.4375 -3.671875 7.4375 -4.421875 C 7.4375 -5.109375 7.34375 -5.703125 7.15625 -6.203125 C 6.96875 -6.703125 6.703125 -7.164062 6.359375 -7.59375 L 5.9375 -7.59375 C 5.0625 -7.59375 4.425781 -7.375 4.03125 -6.9375 C 3.632812 -6.507812 3.4375 -5.734375 3.4375 -4.609375 Z M 3.4375 -4.609375 "/></g></g></g><g fill="#babccb" fill-opacity="1"><g transform="translate(78.200326, 21.267006)"><g><path d="M 13.078125 -9.46875 C 13.410156 -8.632812 13.648438 -7.84375 13.796875 -7.09375 C 13.953125 -6.351562 14.03125 -5.519531 14.03125 -4.59375 C 14.03125 -3.65625 13.890625 -2.828125 13.609375 -2.109375 C 13.328125 -1.398438 12.898438 -0.84375 12.328125 -0.4375 C 11.765625 -0.03125 11.0625 0.171875 10.21875 0.171875 C 9.476562 0.171875 8.894531 0.0078125 8.46875 -0.3125 C 8.050781 -0.632812 7.734375 -1.066406 7.515625 -1.609375 L 7.4375 -1.609375 C 7.21875 -1.066406 6.894531 -0.632812 6.46875 -0.3125 C 6.050781 0.0078125 5.472656 0.171875 4.734375 0.171875 C 3.890625 0.171875 3.179688 -0.03125 2.609375 -0.4375 C 2.046875 -0.84375 1.625 -1.398438 1.34375 -2.109375 C 1.0625 -2.828125 0.921875 -3.65625 0.921875 -4.59375 C 0.921875 -5.519531 1 -6.351562 1.15625 -7.09375 C 1.3125 -7.84375 1.550781 -8.632812 1.875 -9.46875 L 4.34375 -9.46875 C 3.988281 -8.695312 3.722656 -7.914062 3.546875 -7.125 C 3.378906 -6.34375 3.296875 -5.523438 3.296875 -4.671875 C 3.296875 -3.828125 3.425781 -3.144531 3.6875 -2.625 C 3.945312 -2.101562 4.363281 -1.84375 4.9375 -1.84375 C 5.457031 -1.84375 5.8125 -2.023438 6 -2.390625 C 6.195312 -2.765625 6.296875 -3.285156 6.296875 -3.953125 L 6.296875 -6.453125 L 8.65625 -6.453125 L 8.65625 -3.953125 C 8.65625 -3.285156 8.75 -2.765625 8.9375 -2.390625 C 9.132812 -2.023438 9.492188 -1.84375 10.015625 -1.84375 C 10.585938 -1.84375 11.003906 -2.101562 11.265625 -2.625 C 11.523438 -3.144531 11.65625 -3.816406 11.65625 -4.640625 C 11.65625 -5.492188 11.570312 -6.316406 11.40625 -7.109375 C 11.238281 -7.910156 10.972656 -8.695312 10.609375 -9.46875 Z M 13.078125 -9.46875 "/></g></g></g><g fill="#babccb" fill-opacity="1"><g transform="translate(93.149282, 21.267006)"><g><path d="M 11.90625 -9.671875 L 11.90625 -7.421875 L 10.6875 -7.421875 L 10.6875 0 L 7.734375 0 L 7.734375 -7.421875 L 4.515625 -7.421875 L 4.515625 0 L 1.5625 0 L 1.5625 -7.421875 L 0.34375 -7.421875 L 0.34375 -9.671875 Z M 11.90625 -9.671875 "/></g></g></g><g fill="#babccb" fill-opacity="1"><g transform="translate(105.395998, 21.267006)"><g><path d="M 3.9375 -9.46875 L 3.9375 -2.96875 C 3.9375 -2.601562 4.039062 -2.332031 4.25 -2.15625 C 4.457031 -1.976562 4.726562 -1.890625 5.0625 -1.890625 C 5.351562 -1.890625 5.628906 -1.914062 5.890625 -1.96875 C 6.160156 -2.019531 6.425781 -2.09375 6.6875 -2.1875 L 6.6875 -0.265625 C 6.4375 -0.128906 6.113281 -0.0234375 5.71875 0.046875 C 5.332031 0.128906 4.914062 0.171875 4.46875 0.171875 C 3.882812 0.171875 3.359375 0.0820312 2.890625 -0.09375 C 2.421875 -0.28125 2.046875 -0.597656 1.765625 -1.046875 C 1.492188 -1.503906 1.359375 -2.144531 1.359375 -2.96875 L 1.359375 -9.46875 Z M 3.9375 -9.46875 "/></g></g></g><g fill="#babccb" fill-opacity="1"><g transform="translate(112.446087, 21.267006)"><g><path d="M 10.515625 -9.46875 L 6.796875 -5.125 L 10.75 0 L 7.796875 0 L 5.140625 -3.609375 L 3.9375 -2.84375 L 3.9375 0 L 1.359375 0 L 1.359375 -9.46875 L 3.9375 -9.46875 L 3.9375 -6.984375 C 3.925781 -6.640625 3.921875 -6.289062 3.921875 -5.9375 C 3.921875 -5.59375 3.90625 -5.253906 3.875 -4.921875 L 3.921875 -4.921875 C 4.109375 -5.160156 4.300781 -5.398438 4.5 -5.640625 C 4.695312 -5.878906 4.898438 -6.117188 5.109375 -6.359375 L 7.765625 -9.46875 Z M 10.515625 -9.46875 "/></g></g></g><g fill="#babccb" fill-opacity="1"><g transform="translate(123.185782, 21.267006)"><g><path d="M 7.109375 -5.828125 L 7.109375 -4.03125 L 5.6875 -4.03125 C 4.789062 -4.03125 4.148438 -3.929688 3.765625 -3.734375 C 3.390625 -3.546875 3.203125 -3.257812 3.203125 -2.875 C 3.203125 -2.5625 3.375 -2.304688 3.71875 -2.109375 C 4.070312 -1.910156 4.65625 -1.8125 5.46875 -1.8125 C 6.175781 -1.8125 6.832031 -1.882812 7.4375 -2.03125 C 8.050781 -2.1875 8.554688 -2.359375 8.953125 -2.546875 L 8.953125 -0.484375 C 8.523438 -0.285156 8 -0.125 7.375 0 C 6.757812 0.113281 6.0625 0.171875 5.28125 0.171875 C 3.65625 0.171875 2.476562 -0.0820312 1.75 -0.59375 C 1.019531 -1.101562 0.65625 -1.773438 0.65625 -2.609375 C 0.65625 -3.304688 0.863281 -3.828125 1.28125 -4.171875 C 1.707031 -4.523438 2.269531 -4.765625 2.96875 -4.890625 L 2.96875 -4.96875 C 2.351562 -5.113281 1.894531 -5.375 1.59375 -5.75 C 1.300781 -6.125 1.15625 -6.59375 1.15625 -7.15625 C 1.15625 -7.757812 1.335938 -8.242188 1.703125 -8.609375 C 2.078125 -8.972656 2.578125 -9.234375 3.203125 -9.390625 C 3.828125 -9.554688 4.519531 -9.640625 5.28125 -9.640625 C 5.9375 -9.640625 6.59375 -9.570312 7.25 -9.4375 C 7.914062 -9.3125 8.488281 -9.140625 8.96875 -8.921875 L 8.171875 -7.046875 C 7.765625 -7.222656 7.335938 -7.378906 6.890625 -7.515625 C 6.441406 -7.660156 5.929688 -7.734375 5.359375 -7.734375 C 4.097656 -7.734375 3.46875 -7.4375 3.46875 -6.84375 C 3.46875 -6.476562 3.65625 -6.21875 4.03125 -6.0625 C 4.40625 -5.90625 5 -5.828125 5.8125 -5.828125 Z M 4.5 -10.5 L 4.5 -10.765625 C 4.570312 -11.023438 4.65625 -11.335938 4.75 -11.703125 C 4.84375 -12.066406 4.929688 -12.429688 5.015625 -12.796875 C 5.097656 -13.160156 5.15625 -13.492188 5.1875 -13.796875 L 7.578125 -13.796875 L 7.578125 -13.578125 C 7.378906 -13.128906 7.144531 -12.640625 6.875 -12.109375 C 6.613281 -11.578125 6.320312 -11.039062 6 -10.5 Z M 4.5 -10.5 "/></g></g></g><g fill="#babccb" fill-opacity="1"><g transform="translate(132.799542, 21.267006)"><g><path d="M 5.515625 -9.640625 C 6.566406 -9.640625 7.570312 -9.410156 8.53125 -8.953125 L 7.78125 -7 C 7.351562 -7.164062 6.945312 -7.300781 6.5625 -7.40625 C 6.175781 -7.507812 5.800781 -7.5625 5.4375 -7.5625 C 4.71875 -7.5625 4.195312 -7.28125 3.875 -6.71875 C 3.5625 -6.164062 3.40625 -5.34375 3.40625 -4.25 C 3.40625 -3.726562 3.503906 -3.332031 3.703125 -3.0625 C 3.898438 -2.789062 4.179688 -2.585938 4.546875 -2.453125 C 4.910156 -2.316406 5.332031 -2.195312 5.8125 -2.09375 C 6.832031 -1.875 7.539062 -1.570312 7.9375 -1.1875 C 8.34375 -0.8125 8.546875 -0.351562 8.546875 0.1875 C 8.546875 0.707031 8.421875 1.234375 8.171875 1.765625 C 7.929688 2.304688 7.664062 2.785156 7.375 3.203125 L 4.78125 3.203125 C 5.101562 2.734375 5.390625 2.25 5.640625 1.75 C 5.898438 1.257812 6.03125 0.867188 6.03125 0.578125 C 6.03125 0.421875 5.941406 0.273438 5.765625 0.140625 C 5.585938 0.00390625 5.164062 -0.128906 4.5 -0.265625 C 3.34375 -0.484375 2.429688 -0.914062 1.765625 -1.5625 C 1.109375 -2.207031 0.78125 -3.078125 0.78125 -4.171875 C 0.78125 -5.554688 0.972656 -6.644531 1.359375 -7.4375 C 1.753906 -8.226562 2.304688 -8.789062 3.015625 -9.125 C 3.734375 -9.46875 4.566406 -9.640625 5.515625 -9.640625 Z M 5.515625 -9.640625 "/></g></g></g><g fill="#babccb" fill-opacity="1"><g transform="translate(39.123606, 45.517763)"><g><path d="M 0.65625 0 L 0.65625 -2.0625 L 4.640625 -6.484375 L 0.765625 -10.359375 L 0.765625 -12.375 L 9.1875 -12.375 L 9.1875 -10.21875 L 5.453125 -10.21875 C 5.128906 -10.21875 4.8125 -10.222656 4.5 -10.234375 C 4.1875 -10.253906 3.867188 -10.28125 3.546875 -10.3125 L 7.40625 -6.5 L 3.359375 -2.0625 C 4.160156 -2.132812 4.957031 -2.171875 5.75 -2.171875 L 9.6875 -2.171875 L 9.6875 0 Z M 0.65625 0 "/></g></g></g><g fill="#babccb" fill-opacity="1"><g transform="translate(49.395609, 45.517763)"><g><path d="M 2.03125 -9.578125 C 2.570312 -9.578125 3.007812 -9.492188 3.34375 -9.328125 C 3.675781 -9.160156 3.953125 -8.894531 4.171875 -8.53125 C 4.390625 -8.175781 4.59375 -7.71875 4.78125 -7.15625 L 5.40625 -5.28125 L 7.765625 -9.46875 L 10.359375 -9.46875 L 6.515625 -3.015625 L 8.15625 1 C 8.320312 1.382812 8.507812 1.644531 8.71875 1.78125 C 8.925781 1.925781 9.191406 2 9.515625 2 C 9.640625 2 9.765625 1.988281 9.890625 1.96875 C 10.015625 1.957031 10.171875 1.929688 10.359375 1.890625 L 10.359375 3.90625 C 10.117188 3.976562 9.875 4.035156 9.625 4.078125 C 9.375 4.128906 9.070312 4.15625 8.71875 4.15625 C 7.957031 4.15625 7.359375 3.945312 6.921875 3.53125 C 6.484375 3.113281 6.132812 2.5 5.875 1.6875 L 4.984375 -1.078125 L 2.34375 4.15625 L -0.421875 4.15625 L 3.828125 -3.328125 L 2.703125 -6.3125 C 2.535156 -6.75 2.34375 -7.039062 2.125 -7.1875 C 1.914062 -7.34375 1.679688 -7.421875 1.421875 -7.421875 C 1.304688 -7.421875 1.160156 -7.40625 0.984375 -7.375 C 0.816406 -7.351562 0.640625 -7.316406 0.453125 -7.265625 L 0.453125 -9.328125 C 0.691406 -9.390625 0.9375 -9.445312 1.1875 -9.5 C 1.445312 -9.550781 1.726562 -9.578125 2.03125 -9.578125 Z M 2.03125 -9.578125 "/></g></g></g><g fill="#babccb" fill-opacity="1"><g transform="translate(59.650291, 45.517763)"><g><path d="M 7.109375 -5.828125 L 7.109375 -4.03125 L 5.6875 -4.03125 C 4.789062 -4.03125 4.148438 -3.929688 3.765625 -3.734375 C 3.390625 -3.546875 3.203125 -3.257812 3.203125 -2.875 C 3.203125 -2.5625 3.375 -2.304688 3.71875 -2.109375 C 4.070312 -1.910156 4.65625 -1.8125 5.46875 -1.8125 C 6.175781 -1.8125 6.832031 -1.882812 7.4375 -2.03125 C 8.050781 -2.1875 8.554688 -2.359375 8.953125 -2.546875 L 8.953125 -0.484375 C 8.523438 -0.285156 8 -0.125 7.375 0 C 6.757812 0.113281 6.0625 0.171875 5.28125 0.171875 C 3.65625 0.171875 2.476562 -0.0820312 1.75 -0.59375 C 1.019531 -1.101562 0.65625 -1.773438 0.65625 -2.609375 C 0.65625 -3.304688 0.863281 -3.828125 1.28125 -4.171875 C 1.707031 -4.523438 2.269531 -4.765625 2.96875 -4.890625 L 2.96875 -4.96875 C 2.351562 -5.113281 1.894531 -5.375 1.59375 -5.75 C 1.300781 -6.125 1.15625 -6.59375 1.15625 -7.15625 C 1.15625 -7.757812 1.335938 -8.242188 1.703125 -8.609375 C 2.078125 -8.972656 2.578125 -9.234375 3.203125 -9.390625 C 3.828125 -9.554688 4.519531 -9.640625 5.28125 -9.640625 C 5.9375 -9.640625 6.59375 -9.570312 7.25 -9.4375 C 7.914062 -9.3125 8.488281 -9.140625 8.96875 -8.921875 L 8.171875 -7.046875 C 7.765625 -7.222656 7.335938 -7.378906 6.890625 -7.515625 C 6.441406 -7.660156 5.929688 -7.734375 5.359375 -7.734375 C 4.097656 -7.734375 3.46875 -7.4375 3.46875 -6.84375 C 3.46875 -6.476562 3.65625 -6.21875 4.03125 -6.0625 C 4.40625 -5.90625 5 -5.828125 5.8125 -5.828125 Z M 4.5 -10.5 L 4.5 -10.765625 C 4.570312 -11.023438 4.65625 -11.335938 4.75 -11.703125 C 4.84375 -12.066406 4.929688 -12.429688 5.015625 -12.796875 C 5.097656 -13.160156 5.15625 -13.492188 5.1875 -13.796875 L 7.578125 -13.796875 L 7.578125 -13.578125 C 7.378906 -13.128906 7.144531 -12.640625 6.875 -12.109375 C 6.613281 -11.578125 6.320312 -11.039062 6 -10.5 Z M 4.5 -10.5 "/></g></g></g><g fill="#babccb" fill-opacity="1"><g transform="translate(69.264051, 45.517763)"><g><path d="M 10.078125 -4.015625 C 10.078125 -3.234375 9.898438 -2.523438 9.546875 -1.890625 C 9.191406 -1.253906 8.664062 -0.75 7.96875 -0.375 C 7.28125 -0.0078125 6.425781 0.171875 5.40625 0.171875 C 4.476562 0.171875 3.664062 -0.0078125 2.96875 -0.375 C 2.28125 -0.738281 1.742188 -1.273438 1.359375 -1.984375 C 0.972656 -2.691406 0.78125 -3.566406 0.78125 -4.609375 C 0.78125 -5.765625 0.992188 -6.695312 1.421875 -7.40625 C 1.847656 -8.125 2.460938 -8.648438 3.265625 -8.984375 C 4.066406 -9.316406 5.015625 -9.484375 6.109375 -9.484375 L 10.96875 -9.484375 L 10.96875 -7.59375 L 8.5625 -7.59375 C 8.976562 -7.15625 9.332031 -6.644531 9.625 -6.0625 C 9.925781 -5.488281 10.078125 -4.804688 10.078125 -4.015625 Z M 3.4375 -4.609375 C 3.4375 -3.796875 3.585938 -3.140625 3.890625 -2.640625 C 4.203125 -2.148438 4.71875 -1.90625 5.4375 -1.90625 C 6.144531 -1.90625 6.65625 -2.132812 6.96875 -2.59375 C 7.28125 -3.0625 7.4375 -3.671875 7.4375 -4.421875 C 7.4375 -5.109375 7.34375 -5.703125 7.15625 -6.203125 C 6.96875 -6.703125 6.703125 -7.164062 6.359375 -7.59375 L 5.9375 -7.59375 C 5.0625 -7.59375 4.425781 -7.375 4.03125 -6.9375 C 3.632812 -6.507812 3.4375 -5.734375 3.4375 -4.609375 Z M 3.4375 -4.609375 "/></g></g></g><g fill="#babccb" fill-opacity="1"><g transform="translate(80.575383, 45.517763)"><g><path d="M 7.109375 -5.828125 L 7.109375 -4.03125 L 5.6875 -4.03125 C 4.789062 -4.03125 4.148438 -3.929688 3.765625 -3.734375 C 3.390625 -3.546875 3.203125 -3.257812 3.203125 -2.875 C 3.203125 -2.5625 3.375 -2.304688 3.71875 -2.109375 C 4.070312 -1.910156 4.65625 -1.8125 5.46875 -1.8125 C 6.175781 -1.8125 6.832031 -1.882812 7.4375 -2.03125 C 8.050781 -2.1875 8.554688 -2.359375 8.953125 -2.546875 L 8.953125 -0.484375 C 8.523438 -0.285156 8 -0.125 7.375 0 C 6.757812 0.113281 6.0625 0.171875 5.28125 0.171875 C 3.65625 0.171875 2.476562 -0.0820312 1.75 -0.59375 C 1.019531 -1.101562 0.65625 -1.773438 0.65625 -2.609375 C 0.65625 -3.304688 0.863281 -3.828125 1.28125 -4.171875 C 1.707031 -4.523438 2.269531 -4.765625 2.96875 -4.890625 L 2.96875 -4.96875 C 2.351562 -5.113281 1.894531 -5.375 1.59375 -5.75 C 1.300781 -6.125 1.15625 -6.59375 1.15625 -7.15625 C 1.15625 -7.757812 1.335938 -8.242188 1.703125 -8.609375 C 2.078125 -8.972656 2.578125 -9.234375 3.203125 -9.390625 C 3.828125 -9.554688 4.519531 -9.640625 5.28125 -9.640625 C 5.9375 -9.640625 6.59375 -9.570312 7.25 -9.4375 C 7.914062 -9.3125 8.488281 -9.140625 8.96875 -8.921875 L 8.171875 -7.046875 C 7.765625 -7.222656 7.335938 -7.378906 6.890625 -7.515625 C 6.441406 -7.660156 5.929688 -7.734375 5.359375 -7.734375 C 4.097656 -7.734375 3.46875 -7.4375 3.46875 -6.84375 C 3.46875 -6.476562 3.65625 -6.21875 4.03125 -6.0625 C 4.40625 -5.90625 5 -5.828125 5.8125 -5.828125 Z M 7.109375 -5.828125 "/></g></g></g><g fill="#babccb" fill-opacity="1"><g transform="translate(90.189143, 45.517763)"><g><path d="M 3.9375 -9.46875 L 3.9375 -2.96875 C 3.9375 -2.601562 4.039062 -2.332031 4.25 -2.15625 C 4.457031 -1.976562 4.726562 -1.890625 5.0625 -1.890625 C 5.351562 -1.890625 5.628906 -1.914062 5.890625 -1.96875 C 6.160156 -2.019531 6.425781 -2.09375 6.6875 -2.1875 L 6.6875 -0.265625 C 6.4375 -0.128906 6.113281 -0.0234375 5.71875 0.046875 C 5.332031 0.128906 4.914062 0.171875 4.46875 0.171875 C 3.882812 0.171875 3.359375 0.0820312 2.890625 -0.09375 C 2.421875 -0.28125 2.046875 -0.597656 1.765625 -1.046875 C 1.492188 -1.503906 1.359375 -2.144531 1.359375 -2.96875 L 1.359375 -9.46875 Z M 3.9375 -9.46875 "/></g></g></g><g fill="#babccb" fill-opacity="1"><g transform="translate(97.239233, 45.517763)"><g><path d="M 5.515625 -9.640625 C 6.566406 -9.640625 7.570312 -9.410156 8.53125 -8.953125 L 7.78125 -7 C 7.351562 -7.164062 6.945312 -7.300781 6.5625 -7.40625 C 6.175781 -7.507812 5.800781 -7.5625 5.4375 -7.5625 C 4.71875 -7.5625 4.195312 -7.28125 3.875 -6.71875 C 3.5625 -6.164062 3.40625 -5.34375 3.40625 -4.25 C 3.40625 -3.726562 3.503906 -3.332031 3.703125 -3.0625 C 3.898438 -2.789062 4.179688 -2.585938 4.546875 -2.453125 C 4.910156 -2.316406 5.332031 -2.195312 5.8125 -2.09375 C 6.832031 -1.875 7.539062 -1.570312 7.9375 -1.1875 C 8.34375 -0.8125 8.546875 -0.351562 8.546875 0.1875 C 8.546875 0.707031 8.421875 1.234375 8.171875 1.765625 C 7.929688 2.304688 7.664062 2.785156 7.375 3.203125 L 4.78125 3.203125 C 5.101562 2.734375 5.390625 2.25 5.640625 1.75 C 5.898438 1.257812 6.03125 0.867188 6.03125 0.578125 C 6.03125 0.421875 5.941406 0.273438 5.765625 0.140625 C 5.585938 0.00390625 5.164062 -0.128906 4.5 -0.265625 C 3.34375 -0.484375 2.429688 -0.914062 1.765625 -1.5625 C 1.109375 -2.207031 0.78125 -3.078125 0.78125 -4.171875 C 0.78125 -5.554688 0.972656 -6.644531 1.359375 -7.4375 C 1.753906 -8.226562 2.304688 -8.789062 3.015625 -9.125 C 3.734375 -9.46875 4.566406 -9.640625 5.515625 -9.640625 Z M 5.515625 -9.640625 "/></g></g></g></svg>