<svg xmlns="http://www.w3.org/2000/svg" xmlns:xlink="http://www.w3.org/1999/xlink" width="194" zoomAndPan="magnify" viewBox="0 0 145.5 55.5" height="74" preserveAspectRatio="xMidYMid meet" version="1.0"><defs><g/></defs><g fill="#babccb" fill-opacity="1"><g transform="translate(2.587334, 28.551385)"><g><path d="M 9.125 0 L 8.234375 -2.953125 L 3.71875 -2.953125 L 2.828125 0 L 0 0 L 4.359375 -12.421875 L 7.578125 -12.421875 L 11.953125 0 Z M 7.609375 -5.140625 L 6.703125 -8.015625 C 6.648438 -8.210938 6.578125 -8.460938 6.484375 -8.765625 C 6.390625 -9.066406 6.296875 -9.375 6.203125 -9.6875 C 6.109375 -10 6.035156 -10.269531 5.984375 -10.5 C 5.921875 -10.269531 5.835938 -9.984375 5.734375 -9.640625 C 5.640625 -9.296875 5.550781 -8.972656 5.46875 -8.671875 C 5.382812 -8.367188 5.316406 -8.148438 5.265625 -8.015625 L 4.390625 -5.140625 Z M 7.609375 -5.140625 "/></g></g></g><g fill="#babccb" fill-opacity="1"><g transform="translate(14.53957, 28.551385)"><g><path d="M 5.5625 0.15625 C 4.425781 0.15625 3.539062 -0.0390625 2.90625 -0.4375 C 2.28125 -0.84375 1.84375 -1.378906 1.59375 -2.046875 C 1.34375 -2.710938 1.21875 -3.46875 1.21875 -4.3125 L 1.21875 -9.46875 L 3.796875 -9.46875 L 3.796875 -4.234375 C 3.796875 -3.410156 3.941406 -2.816406 4.234375 -2.453125 C 4.523438 -2.085938 5 -1.90625 5.65625 -1.90625 C 6.320312 -1.90625 6.820312 -2.148438 7.15625 -2.640625 C 7.5 -3.140625 7.671875 -3.992188 7.671875 -5.203125 C 7.671875 -5.941406 7.613281 -6.644531 7.5 -7.3125 C 7.394531 -7.976562 7.25 -8.695312 7.0625 -9.46875 L 9.671875 -9.46875 C 9.859375 -8.707031 10.003906 -7.992188 10.109375 -7.328125 C 10.210938 -6.671875 10.265625 -5.9375 10.265625 -5.125 C 10.265625 -3.300781 9.863281 -1.960938 9.0625 -1.109375 C 8.257812 -0.265625 7.09375 0.15625 5.5625 0.15625 Z M 5.5625 0.15625 "/></g></g></g><g fill="#babccb" fill-opacity="1"><g transform="translate(25.712315, 28.551385)"><g><path d="M 8.65625 -9.46875 L 8.65625 -7.515625 L 5.296875 -7.515625 L 5.296875 -2.96875 C 5.296875 -2.601562 5.398438 -2.332031 5.609375 -2.15625 C 5.816406 -1.976562 6.085938 -1.890625 6.421875 -1.890625 C 6.710938 -1.890625 6.988281 -1.914062 7.25 -1.96875 C 7.519531 -2.019531 7.789062 -2.09375 8.0625 -2.1875 L 8.0625 -0.265625 C 7.789062 -0.128906 7.460938 -0.0234375 7.078125 0.046875 C 6.703125 0.128906 6.289062 0.171875 5.84375 0.171875 C 5.25 0.171875 4.710938 0.0820312 4.234375 -0.09375 C 3.765625 -0.28125 3.394531 -0.597656 3.125 -1.046875 C 2.851562 -1.503906 2.71875 -2.144531 2.71875 -2.96875 L 2.71875 -7.515625 L 0.34375 -7.515625 L 0.34375 -8.59375 L 1.84375 -9.46875 Z M 8.65625 -9.46875 "/></g></g></g><g fill="#babccb" fill-opacity="1"><g transform="translate(35.031596, 28.551385)"><g><path d="M 9.953125 -4.75 C 9.953125 -3.175781 9.535156 -1.960938 8.703125 -1.109375 C 7.878906 -0.253906 6.757812 0.171875 5.34375 0.171875 C 4.457031 0.171875 3.671875 -0.015625 2.984375 -0.390625 C 2.296875 -0.773438 1.753906 -1.332031 1.359375 -2.0625 C 0.972656 -2.800781 0.78125 -3.695312 0.78125 -4.75 C 0.78125 -6.320312 1.1875 -7.53125 2 -8.375 C 2.820312 -9.21875 3.953125 -9.640625 5.390625 -9.640625 C 6.273438 -9.640625 7.054688 -9.445312 7.734375 -9.0625 C 8.421875 -8.675781 8.960938 -8.117188 9.359375 -7.390625 C 9.753906 -6.671875 9.953125 -5.789062 9.953125 -4.75 Z M 3.40625 -4.75 C 3.40625 -3.8125 3.554688 -3.101562 3.859375 -2.625 C 4.171875 -2.144531 4.675781 -1.90625 5.375 -1.90625 C 6.050781 -1.90625 6.539062 -2.144531 6.84375 -2.625 C 7.15625 -3.101562 7.3125 -3.8125 7.3125 -4.75 C 7.3125 -5.6875 7.15625 -6.390625 6.84375 -6.859375 C 6.539062 -7.328125 6.046875 -7.5625 5.359375 -7.5625 C 4.671875 -7.5625 4.171875 -7.328125 3.859375 -6.859375 C 3.554688 -6.390625 3.40625 -5.6875 3.40625 -4.75 Z M 3.40625 -4.75 "/></g></g></g><g fill="#babccb" fill-opacity="1"><g transform="translate(45.753969, 28.551385)"><g><path d="M 11.90625 -9.671875 L 11.90625 -7.421875 L 10.6875 -7.421875 L 10.6875 0 L 7.734375 0 L 7.734375 -7.421875 L 4.515625 -7.421875 L 4.515625 0 L 1.5625 0 L 1.5625 -7.421875 L 0.34375 -7.421875 L 0.34375 -9.671875 Z M 11.90625 -9.671875 "/></g></g></g><g fill="#babccb" fill-opacity="1"><g transform="translate(58.000685, 28.551385)"><g><path d="M 7.109375 -5.828125 L 7.109375 -4.03125 L 5.6875 -4.03125 C 4.789062 -4.03125 4.148438 -3.929688 3.765625 -3.734375 C 3.390625 -3.546875 3.203125 -3.257812 3.203125 -2.875 C 3.203125 -2.5625 3.375 -2.304688 3.71875 -2.109375 C 4.070312 -1.910156 4.65625 -1.8125 5.46875 -1.8125 C 6.175781 -1.8125 6.832031 -1.882812 7.4375 -2.03125 C 8.050781 -2.1875 8.554688 -2.359375 8.953125 -2.546875 L 8.953125 -0.484375 C 8.523438 -0.285156 8 -0.125 7.375 0 C 6.757812 0.113281 6.0625 0.171875 5.28125 0.171875 C 3.65625 0.171875 2.476562 -0.0820312 1.75 -0.59375 C 1.019531 -1.101562 0.65625 -1.773438 0.65625 -2.609375 C 0.65625 -3.304688 0.863281 -3.828125 1.28125 -4.171875 C 1.707031 -4.523438 2.269531 -4.765625 2.96875 -4.890625 L 2.96875 -4.96875 C 2.351562 -5.113281 1.894531 -5.375 1.59375 -5.75 C 1.300781 -6.125 1.15625 -6.59375 1.15625 -7.15625 C 1.15625 -7.757812 1.335938 -8.242188 1.703125 -8.609375 C 2.078125 -8.972656 2.578125 -9.234375 3.203125 -9.390625 C 3.828125 -9.554688 4.519531 -9.640625 5.28125 -9.640625 C 5.9375 -9.640625 6.59375 -9.570312 7.25 -9.4375 C 7.914062 -9.3125 8.488281 -9.140625 8.96875 -8.921875 L 8.171875 -7.046875 C 7.765625 -7.222656 7.335938 -7.378906 6.890625 -7.515625 C 6.441406 -7.660156 5.929688 -7.734375 5.359375 -7.734375 C 4.097656 -7.734375 3.46875 -7.4375 3.46875 -6.84375 C 3.46875 -6.476562 3.65625 -6.21875 4.03125 -6.0625 C 4.40625 -5.90625 5 -5.828125 5.8125 -5.828125 Z M 7.109375 -5.828125 "/></g></g></g><g fill="#babccb" fill-opacity="1"><g transform="translate(67.614445, 28.551385)"><g><path d="M 11.90625 -9.671875 L 11.90625 -7.421875 L 10.6875 -7.421875 L 10.6875 0 L 7.734375 0 L 7.734375 -7.421875 L 4.515625 -7.421875 L 4.515625 0 L 1.5625 0 L 1.5625 -7.421875 L 0.34375 -7.421875 L 0.34375 -9.671875 Z M 11.90625 -9.671875 "/></g></g></g><g fill="#babccb" fill-opacity="1"><g transform="translate(79.861161, 28.551385)"><g><path d="M 9.953125 -4.75 C 9.953125 -3.175781 9.535156 -1.960938 8.703125 -1.109375 C 7.878906 -0.253906 6.757812 0.171875 5.34375 0.171875 C 4.457031 0.171875 3.671875 -0.015625 2.984375 -0.390625 C 2.296875 -0.773438 1.753906 -1.332031 1.359375 -2.0625 C 0.972656 -2.800781 0.78125 -3.695312 0.78125 -4.75 C 0.78125 -6.320312 1.1875 -7.53125 2 -8.375 C 2.820312 -9.21875 3.953125 -9.640625 5.390625 -9.640625 C 6.273438 -9.640625 7.054688 -9.445312 7.734375 -9.0625 C 8.421875 -8.675781 8.960938 -8.117188 9.359375 -7.390625 C 9.753906 -6.671875 9.953125 -5.789062 9.953125 -4.75 Z M 3.40625 -4.75 C 3.40625 -3.8125 3.554688 -3.101562 3.859375 -2.625 C 4.171875 -2.144531 4.675781 -1.90625 5.375 -1.90625 C 6.050781 -1.90625 6.539062 -2.144531 6.84375 -2.625 C 7.15625 -3.101562 7.3125 -3.8125 7.3125 -4.75 C 7.3125 -5.6875 7.15625 -6.390625 6.84375 -6.859375 C 6.539062 -7.328125 6.046875 -7.5625 5.359375 -7.5625 C 4.671875 -7.5625 4.171875 -7.328125 3.859375 -6.859375 C 3.554688 -6.390625 3.40625 -5.6875 3.40625 -4.75 Z M 3.40625 -4.75 "/></g></g></g><g fill="#babccb" fill-opacity="1"><g transform="translate(90.583534, 28.551385)"><g><path d="M 3.9375 -9.46875 L 3.9375 -2.96875 C 3.9375 -2.601562 4.039062 -2.332031 4.25 -2.15625 C 4.457031 -1.976562 4.726562 -1.890625 5.0625 -1.890625 C 5.351562 -1.890625 5.628906 -1.914062 5.890625 -1.96875 C 6.160156 -2.019531 6.425781 -2.09375 6.6875 -2.1875 L 6.6875 -0.265625 C 6.4375 -0.128906 6.113281 -0.0234375 5.71875 0.046875 C 5.332031 0.128906 4.914062 0.171875 4.46875 0.171875 C 3.882812 0.171875 3.359375 0.0820312 2.890625 -0.09375 C 2.421875 -0.28125 2.046875 -0.597656 1.765625 -1.046875 C 1.492188 -1.503906 1.359375 -2.144531 1.359375 -2.96875 L 1.359375 -9.46875 Z M 1.84375 -10.5 L 1.84375 -10.765625 C 1.914062 -11.023438 2 -11.335938 2.09375 -11.703125 C 2.1875 -12.066406 2.273438 -12.429688 2.359375 -12.796875 C 2.441406 -13.160156 2.5 -13.492188 2.53125 -13.796875 L 4.921875 -13.796875 L 4.921875 -13.578125 C 4.722656 -13.128906 4.488281 -12.640625 4.21875 -12.109375 C 3.957031 -11.578125 3.664062 -11.039062 3.34375 -10.5 Z M 1.84375 -10.5 "/></g></g></g><g fill="#babccb" fill-opacity="1"><g transform="translate(97.633624, 28.551385)"><g><path d="M 9.921875 -6.546875 C 9.921875 -5.140625 9.769531 -3.9375 9.46875 -2.9375 C 9.164062 -1.9375 8.675781 -1.164062 8 -0.625 C 7.332031 -0.09375 6.445312 0.171875 5.34375 0.171875 C 3.789062 0.171875 2.640625 -0.421875 1.890625 -1.609375 C 1.148438 -2.796875 0.78125 -4.441406 0.78125 -6.546875 C 0.78125 -7.953125 0.929688 -9.15625 1.234375 -10.15625 C 1.535156 -11.15625 2.019531 -11.921875 2.6875 -12.453125 C 3.351562 -12.984375 4.238281 -13.25 5.34375 -13.25 C 6.882812 -13.25 8.03125 -12.660156 8.78125 -11.484375 C 9.539062 -10.316406 9.921875 -8.671875 9.921875 -6.546875 Z M 5.359375 -11.390625 C 4.710938 -11.390625 4.238281 -11.066406 3.9375 -10.421875 C 3.644531 -9.785156 3.476562 -8.832031 3.4375 -7.5625 L 7.28125 -7.5625 C 7.226562 -8.832031 7.050781 -9.785156 6.75 -10.421875 C 6.457031 -11.066406 5.992188 -11.390625 5.359375 -11.390625 Z M 5.34375 -1.703125 C 6 -1.703125 6.476562 -2.023438 6.78125 -2.671875 C 7.09375 -3.328125 7.257812 -4.3125 7.28125 -5.625 L 3.40625 -5.625 C 3.425781 -4.320312 3.582031 -3.34375 3.875 -2.6875 C 4.175781 -2.03125 4.664062 -1.703125 5.34375 -1.703125 Z M 5.34375 -1.703125 "/></g></g></g><g fill="#babccb" fill-opacity="1"><g transform="translate(108.338676, 28.551385)"><g><path d="M 6.71875 -9.640625 C 7.738281 -9.640625 8.550781 -9.363281 9.15625 -8.8125 C 9.769531 -8.257812 10.078125 -7.378906 10.078125 -6.171875 L 10.078125 4.15625 L 7.5 4.15625 L 7.5 -5.53125 C 7.5 -6.207031 7.378906 -6.71875 7.140625 -7.0625 C 6.898438 -7.40625 6.515625 -7.578125 5.984375 -7.578125 C 5.191406 -7.578125 4.648438 -7.304688 4.359375 -6.765625 C 4.078125 -6.222656 3.9375 -5.453125 3.9375 -4.453125 L 3.9375 0 L 1.359375 0 L 1.359375 -9.46875 L 3.328125 -9.46875 L 3.671875 -8.25 L 3.8125 -8.25 C 4.113281 -8.726562 4.523438 -9.078125 5.046875 -9.296875 C 5.578125 -9.523438 6.132812 -9.640625 6.71875 -9.640625 Z M 6.71875 -9.640625 "/></g></g></g><g fill="#babccb" fill-opacity="1"><g transform="translate(119.719294, 28.551385)"><g><path d="M 10.078125 -4.015625 C 10.078125 -3.234375 9.898438 -2.523438 9.546875 -1.890625 C 9.191406 -1.253906 8.664062 -0.75 7.96875 -0.375 C 7.28125 -0.0078125 6.425781 0.171875 5.40625 0.171875 C 4.476562 0.171875 3.664062 -0.0078125 2.96875 -0.375 C 2.28125 -0.738281 1.742188 -1.273438 1.359375 -1.984375 C 0.972656 -2.691406 0.78125 -3.566406 0.78125 -4.609375 C 0.78125 -5.765625 0.992188 -6.695312 1.421875 -7.40625 C 1.847656 -8.125 2.460938 -8.648438 3.265625 -8.984375 C 4.066406 -9.316406 5.015625 -9.484375 6.109375 -9.484375 L 10.96875 -9.484375 L 10.96875 -7.59375 L 8.5625 -7.59375 C 8.976562 -7.15625 9.332031 -6.644531 9.625 -6.0625 C 9.925781 -5.488281 10.078125 -4.804688 10.078125 -4.015625 Z M 3.4375 -4.609375 C 3.4375 -3.796875 3.585938 -3.140625 3.890625 -2.640625 C 4.203125 -2.148438 4.71875 -1.90625 5.4375 -1.90625 C 6.144531 -1.90625 6.65625 -2.132812 6.96875 -2.59375 C 7.28125 -3.0625 7.4375 -3.671875 7.4375 -4.421875 C 7.4375 -5.109375 7.34375 -5.703125 7.15625 -6.203125 C 6.96875 -6.703125 6.703125 -7.164062 6.359375 -7.59375 L 5.9375 -7.59375 C 5.0625 -7.59375 4.425781 -7.375 4.03125 -6.9375 C 3.632812 -6.507812 3.4375 -5.734375 3.4375 -4.609375 Z M 3.4375 -4.609375 "/></g></g></g><g fill="#babccb" fill-opacity="1"><g transform="translate(131.030626, 28.551385)"><g><path d="M 6.71875 -9.640625 C 7.738281 -9.640625 8.550781 -9.363281 9.15625 -8.8125 C 9.769531 -8.257812 10.078125 -7.378906 10.078125 -6.171875 L 10.078125 4.15625 L 7.5 4.15625 L 7.5 -5.53125 C 7.5 -6.207031 7.378906 -6.71875 7.140625 -7.0625 C 6.898438 -7.40625 6.515625 -7.578125 5.984375 -7.578125 C 5.191406 -7.578125 4.648438 -7.304688 4.359375 -6.765625 C 4.078125 -6.222656 3.9375 -5.453125 3.9375 -4.453125 L 3.9375 0 L 1.359375 0 L 1.359375 -9.46875 L 3.328125 -9.46875 L 3.671875 -8.25 L 3.8125 -8.25 C 4.113281 -8.726562 4.523438 -9.078125 5.046875 -9.296875 C 5.578125 -9.523438 6.132812 -9.640625 6.71875 -9.640625 Z M 6.71875 -9.640625 "/></g></g></g></svg>