<svg xmlns="http://www.w3.org/2000/svg" xmlns:xlink="http://www.w3.org/1999/xlink" width="194" zoomAndPan="magnify" viewBox="0 0 145.5 55.5" height="74" preserveAspectRatio="xMidYMid meet" version="1.0"><defs><g/></defs><g fill="#babccb" fill-opacity="1"><g transform="translate(8.42763, 28.930758)"><g><path d="M 10.859375 0 L 9.78125 -3.5 L 4.421875 -3.5 L 3.359375 0 L 0 0 L 5.1875 -14.765625 L 9 -14.765625 L 14.203125 0 Z M 9.046875 -6.109375 L 7.96875 -9.53125 C 7.894531 -9.769531 7.800781 -10.066406 7.6875 -10.421875 C 7.582031 -10.773438 7.472656 -11.132812 7.359375 -11.5 C 7.253906 -11.875 7.171875 -12.203125 7.109375 -12.484375 C 7.035156 -12.203125 6.941406 -11.859375 6.828125 -11.453125 C 6.710938 -11.054688 6.601562 -10.675781 6.5 -10.3125 C 6.394531 -9.945312 6.316406 -9.6875 6.265625 -9.53125 L 5.203125 -6.109375 Z M 9.046875 -6.109375 "/></g></g></g><g fill="#babccb" fill-opacity="1"><g transform="translate(22.632211, 28.930758)"><g><path d="M 6.609375 0.1875 C 5.265625 0.1875 4.21875 -0.046875 3.46875 -0.515625 C 2.71875 -0.992188 2.191406 -1.628906 1.890625 -2.421875 C 1.585938 -3.222656 1.4375 -4.125 1.4375 -5.125 L 1.4375 -11.25 L 4.515625 -11.25 L 4.515625 -5.03125 C 4.515625 -4.050781 4.6875 -3.34375 5.03125 -2.90625 C 5.382812 -2.476562 5.945312 -2.265625 6.71875 -2.265625 C 7.507812 -2.265625 8.109375 -2.554688 8.515625 -3.140625 C 8.921875 -3.734375 9.125 -4.742188 9.125 -6.171875 C 9.125 -7.054688 9.054688 -7.894531 8.921875 -8.6875 C 8.796875 -9.488281 8.625 -10.34375 8.40625 -11.25 L 11.484375 -11.25 C 11.710938 -10.351562 11.882812 -9.507812 12 -8.71875 C 12.125 -7.925781 12.1875 -7.050781 12.1875 -6.09375 C 12.1875 -3.925781 11.710938 -2.335938 10.765625 -1.328125 C 9.816406 -0.316406 8.429688 0.1875 6.609375 0.1875 Z M 6.609375 0.1875 "/></g></g></g><g fill="#babccb" fill-opacity="1"><g transform="translate(35.910409, 28.930758)"><g><path d="M 10.296875 -11.25 L 10.296875 -8.9375 L 6.296875 -8.9375 L 6.296875 -3.515625 C 6.296875 -3.097656 6.421875 -2.78125 6.671875 -2.5625 C 6.921875 -2.351562 7.242188 -2.25 7.640625 -2.25 C 7.984375 -2.25 8.3125 -2.28125 8.625 -2.34375 C 8.945312 -2.40625 9.265625 -2.488281 9.578125 -2.59375 L 9.578125 -0.3125 C 9.265625 -0.15625 8.878906 -0.03125 8.421875 0.0625 C 7.972656 0.15625 7.476562 0.203125 6.9375 0.203125 C 6.238281 0.203125 5.609375 0.09375 5.046875 -0.125 C 4.484375 -0.34375 4.039062 -0.71875 3.71875 -1.25 C 3.394531 -1.789062 3.234375 -2.546875 3.234375 -3.515625 L 3.234375 -8.9375 L 0.40625 -8.9375 L 0.40625 -10.21875 L 2.1875 -11.25 Z M 10.296875 -11.25 "/></g></g></g><g fill="#babccb" fill-opacity="1"><g transform="translate(46.985866, 28.930758)"><g><path d="M 11.828125 -5.640625 C 11.828125 -3.773438 11.332031 -2.332031 10.34375 -1.3125 C 9.363281 -0.300781 8.03125 0.203125 6.34375 0.203125 C 5.300781 0.203125 4.367188 -0.0195312 3.546875 -0.46875 C 2.734375 -0.925781 2.09375 -1.585938 1.625 -2.453125 C 1.15625 -3.328125 0.921875 -4.390625 0.921875 -5.640625 C 0.921875 -7.503906 1.40625 -8.9375 2.375 -9.9375 C 3.351562 -10.945312 4.695312 -11.453125 6.40625 -11.453125 C 7.457031 -11.453125 8.390625 -11.222656 9.203125 -10.765625 C 10.015625 -10.316406 10.65625 -9.660156 11.125 -8.796875 C 11.59375 -7.929688 11.828125 -6.878906 11.828125 -5.640625 Z M 4.0625 -5.640625 C 4.0625 -4.523438 4.238281 -3.679688 4.59375 -3.109375 C 4.957031 -2.546875 5.554688 -2.265625 6.390625 -2.265625 C 7.191406 -2.265625 7.773438 -2.546875 8.140625 -3.109375 C 8.503906 -3.679688 8.6875 -4.523438 8.6875 -5.640625 C 8.6875 -6.753906 8.503906 -7.585938 8.140625 -8.140625 C 7.773438 -8.703125 7.179688 -8.984375 6.359375 -8.984375 C 5.546875 -8.984375 4.957031 -8.703125 4.59375 -8.140625 C 4.238281 -7.585938 4.0625 -6.753906 4.0625 -5.640625 Z M 4.0625 -5.640625 "/></g></g></g><g fill="#babccb" fill-opacity="1"><g transform="translate(59.728823, 28.930758)"><g><path d="M 11.703125 -11.25 L 7.53125 -0.1875 C 7.3125 0.375 7.128906 0.957031 6.984375 1.5625 C 6.847656 2.175781 6.738281 2.773438 6.65625 3.359375 C 6.582031 3.953125 6.546875 4.476562 6.546875 4.9375 L 3.296875 4.9375 C 3.296875 4.550781 3.335938 4.070312 3.421875 3.5 C 3.515625 2.925781 3.632812 2.316406 3.78125 1.671875 C 3.9375 1.035156 4.109375 0.4375 4.296875 -0.125 L 0.015625 -11.25 L 3.21875 -11.25 L 4.859375 -6.28125 C 4.984375 -5.90625 5.117188 -5.472656 5.265625 -4.984375 C 5.410156 -4.492188 5.535156 -4.015625 5.640625 -3.546875 C 5.753906 -3.078125 5.832031 -2.722656 5.875 -2.484375 L 5.9375 -2.484375 C 5.957031 -2.691406 6.007812 -3 6.09375 -3.40625 C 6.1875 -3.8125 6.296875 -4.257812 6.421875 -4.75 C 6.554688 -5.238281 6.703125 -5.703125 6.859375 -6.140625 L 8.5 -11.25 Z M 11.703125 -11.25 "/></g></g></g><g fill="#babccb" fill-opacity="1"><g transform="translate(71.421884, 28.930758)"><g><path d="M 0.0625 -11.25 L 3.21875 -11.25 L 5.390625 -5 C 5.503906 -4.6875 5.628906 -4.296875 5.765625 -3.828125 C 5.898438 -3.359375 6.007812 -2.988281 6.09375 -2.71875 L 6.171875 -2.71875 C 6.960938 -3.75 7.523438 -4.9375 7.859375 -6.28125 C 8.191406 -7.632812 8.359375 -9.289062 8.359375 -11.25 L 11.453125 -11.25 C 11.453125 -9.757812 11.320312 -8.378906 11.0625 -7.109375 C 10.8125 -5.835938 10.363281 -4.625 9.71875 -3.46875 C 9.082031 -2.3125 8.191406 -1.15625 7.046875 0 L 4.28125 0 Z M 0.0625 -11.25 "/></g></g></g><g fill="#babccb" fill-opacity="1"><g transform="translate(83.67077, 28.930758)"><g><path d="M 15.546875 -11.25 C 15.941406 -10.257812 16.226562 -9.320312 16.40625 -8.4375 C 16.59375 -7.550781 16.6875 -6.554688 16.6875 -5.453125 C 16.6875 -4.347656 16.515625 -3.367188 16.171875 -2.515625 C 15.835938 -1.660156 15.332031 -0.992188 14.65625 -0.515625 C 13.988281 -0.0351562 13.15625 0.203125 12.15625 0.203125 C 11.269531 0.203125 10.578125 0.0078125 10.078125 -0.375 C 9.578125 -0.757812 9.195312 -1.273438 8.9375 -1.921875 L 8.828125 -1.921875 C 8.566406 -1.273438 8.1875 -0.757812 7.6875 -0.375 C 7.1875 0.0078125 6.5 0.203125 5.625 0.203125 C 4.625 0.203125 3.785156 -0.0351562 3.109375 -0.515625 C 2.429688 -0.992188 1.925781 -1.660156 1.59375 -2.515625 C 1.257812 -3.367188 1.09375 -4.347656 1.09375 -5.453125 C 1.09375 -6.554688 1.179688 -7.550781 1.359375 -8.4375 C 1.546875 -9.320312 1.832031 -10.257812 2.21875 -11.25 L 5.171875 -11.25 C 4.742188 -10.34375 4.425781 -9.421875 4.21875 -8.484375 C 4.007812 -7.546875 3.90625 -6.570312 3.90625 -5.5625 C 3.90625 -4.5625 4.0625 -3.75 4.375 -3.125 C 4.6875 -2.5 5.1875 -2.1875 5.875 -2.1875 C 6.488281 -2.1875 6.90625 -2.40625 7.125 -2.84375 C 7.351562 -3.28125 7.46875 -3.898438 7.46875 -4.703125 L 7.46875 -7.65625 L 10.296875 -7.65625 L 10.296875 -4.703125 C 10.296875 -3.898438 10.40625 -3.28125 10.625 -2.84375 C 10.851562 -2.40625 11.28125 -2.1875 11.90625 -2.1875 C 12.59375 -2.1875 13.085938 -2.5 13.390625 -3.125 C 13.703125 -3.75 13.859375 -4.546875 13.859375 -5.515625 C 13.859375 -6.535156 13.757812 -7.519531 13.5625 -8.46875 C 13.363281 -9.414062 13.046875 -10.34375 12.609375 -11.25 Z M 15.546875 -11.25 "/></g></g></g><g fill="#babccb" fill-opacity="1"><g transform="translate(101.43679, 28.930758)"><g><path d="M 11.984375 -4.78125 C 11.984375 -3.84375 11.769531 -2.992188 11.34375 -2.234375 C 10.914062 -1.484375 10.289062 -0.890625 9.46875 -0.453125 C 8.644531 -0.015625 7.628906 0.203125 6.421875 0.203125 C 5.328125 0.203125 4.367188 -0.0078125 3.546875 -0.4375 C 2.722656 -0.875 2.078125 -1.515625 1.609375 -2.359375 C 1.148438 -3.203125 0.921875 -4.242188 0.921875 -5.484375 C 0.921875 -6.847656 1.175781 -7.957031 1.6875 -8.8125 C 2.195312 -9.664062 2.925781 -10.285156 3.875 -10.671875 C 4.832031 -11.066406 5.960938 -11.265625 7.265625 -11.265625 L 13.03125 -11.265625 L 13.03125 -9.015625 L 10.171875 -9.015625 C 10.671875 -8.492188 11.097656 -7.890625 11.453125 -7.203125 C 11.804688 -6.515625 11.984375 -5.707031 11.984375 -4.78125 Z M 4.078125 -5.484375 C 4.078125 -4.515625 4.257812 -3.734375 4.625 -3.140625 C 5 -2.554688 5.613281 -2.265625 6.46875 -2.265625 C 7.300781 -2.265625 7.898438 -2.535156 8.265625 -3.078125 C 8.640625 -3.628906 8.828125 -4.351562 8.828125 -5.25 C 8.828125 -6.070312 8.71875 -6.78125 8.5 -7.375 C 8.28125 -7.96875 7.96875 -8.515625 7.5625 -9.015625 L 7.0625 -9.015625 C 6.019531 -9.015625 5.257812 -8.753906 4.78125 -8.234375 C 4.3125 -7.722656 4.078125 -6.804688 4.078125 -5.484375 Z M 4.078125 -5.484375 "/></g></g></g><g fill="#babccb" fill-opacity="1"><g transform="translate(114.879691, 28.930758)"><g><path d="M 4.671875 -11.25 L 4.671875 -3.515625 C 4.671875 -3.097656 4.796875 -2.78125 5.046875 -2.5625 C 5.296875 -2.351562 5.617188 -2.25 6.015625 -2.25 C 6.359375 -2.25 6.6875 -2.28125 7 -2.34375 C 7.3125 -2.40625 7.628906 -2.488281 7.953125 -2.59375 L 7.953125 -0.3125 C 7.648438 -0.15625 7.265625 -0.03125 6.796875 0.0625 C 6.335938 0.15625 5.84375 0.203125 5.3125 0.203125 C 4.613281 0.203125 3.984375 0.09375 3.421875 -0.125 C 2.867188 -0.34375 2.425781 -0.71875 2.09375 -1.25 C 1.769531 -1.789062 1.609375 -2.546875 1.609375 -3.515625 L 1.609375 -11.25 Z M 2.1875 -12.484375 L 2.1875 -12.78125 C 2.28125 -13.101562 2.378906 -13.476562 2.484375 -13.90625 C 2.597656 -14.34375 2.703125 -14.773438 2.796875 -15.203125 C 2.890625 -15.640625 2.957031 -16.035156 3 -16.390625 L 5.84375 -16.390625 L 5.84375 -16.140625 C 5.613281 -15.609375 5.335938 -15.023438 5.015625 -14.390625 C 4.703125 -13.765625 4.351562 -13.128906 3.96875 -12.484375 Z M 2.1875 -12.484375 "/></g></g></g><g fill="#babccb" fill-opacity="1"><g transform="translate(123.258338, 28.930758)"><g><path d="M 5.328125 0.203125 C 4.015625 0.203125 2.953125 -0.285156 2.140625 -1.265625 C 1.328125 -2.242188 0.921875 -3.679688 0.921875 -5.578125 C 0.921875 -7.484375 1.335938 -8.929688 2.171875 -9.921875 C 3.003906 -10.921875 4.132812 -11.421875 5.5625 -11.421875 C 6.351562 -11.421875 7.003906 -11.28125 7.515625 -11 C 8.023438 -10.71875 8.453125 -10.296875 8.796875 -9.734375 L 8.9375 -9.734375 C 8.988281 -9.972656 9.070312 -10.234375 9.1875 -10.515625 C 9.3125 -10.796875 9.457031 -11.039062 9.625 -11.25 L 12.15625 -11.25 C 12 -10.800781 11.835938 -10.160156 11.671875 -9.328125 C 11.503906 -8.492188 11.421875 -7.613281 11.421875 -6.6875 L 11.421875 -3.5625 C 11.421875 -3.09375 11.503906 -2.773438 11.671875 -2.609375 C 11.847656 -2.453125 12.050781 -2.375 12.28125 -2.375 C 12.375 -2.375 12.476562 -2.382812 12.59375 -2.40625 C 12.71875 -2.425781 12.8125 -2.445312 12.875 -2.46875 L 12.875 -0.0625 C 12.78125 0.0078125 12.582031 0.0703125 12.28125 0.125 C 11.976562 0.175781 11.710938 0.203125 11.484375 0.203125 C 10.804688 0.203125 10.253906 0.0820312 9.828125 -0.15625 C 9.398438 -0.40625 9.066406 -0.847656 8.828125 -1.484375 L 8.625 -1.484375 C 8.3125 -1.015625 7.894531 -0.613281 7.375 -0.28125 C 6.851562 0.0390625 6.171875 0.203125 5.328125 0.203125 Z M 6.265625 -2.25 C 7.109375 -2.25 7.695312 -2.503906 8.03125 -3.015625 C 8.363281 -3.535156 8.539062 -4.359375 8.5625 -5.484375 L 8.5625 -5.59375 C 8.5625 -6.695312 8.394531 -7.535156 8.0625 -8.109375 C 7.726562 -8.691406 7.113281 -8.984375 6.21875 -8.984375 C 5.488281 -8.984375 4.945312 -8.691406 4.59375 -8.109375 C 4.238281 -7.523438 4.0625 -6.675781 4.0625 -5.5625 C 4.0625 -3.351562 4.796875 -2.25 6.265625 -2.25 Z M 6.265625 -2.25 "/></g></g></g></svg>