<svg xmlns="http://www.w3.org/2000/svg" xmlns:xlink="http://www.w3.org/1999/xlink" width="194" zoomAndPan="magnify" viewBox="0 0 145.5 55.5" height="74" preserveAspectRatio="xMidYMid meet" version="1.0"><defs><g/></defs><g fill="#babccb" fill-opacity="1"><g transform="translate(28.509749, 32.006369)"><g><path d="M 16.109375 0 L 14.578125 -5 L 6.921875 -5 L 5.390625 0 L 0.59375 0 L 8.015625 -21.125 L 13.46875 -21.125 L 20.921875 0 Z M 13.53125 -8.75 L 11.984375 -13.640625 C 11.890625 -13.972656 11.765625 -14.394531 11.609375 -14.90625 C 11.453125 -15.414062 11.296875 -15.9375 11.140625 -16.46875 C 10.984375 -17 10.851562 -17.457031 10.75 -17.84375 C 10.65625 -17.457031 10.523438 -16.972656 10.359375 -16.390625 C 10.191406 -15.804688 10.035156 -15.253906 9.890625 -14.734375 C 9.742188 -14.210938 9.628906 -13.847656 9.546875 -13.640625 L 8.046875 -8.75 Z M 0.296875 -16.453125 L 0.296875 -16.90625 C 0.429688 -17.351562 0.578125 -17.882812 0.734375 -18.5 C 0.890625 -19.125 1.035156 -19.742188 1.171875 -20.359375 C 1.316406 -20.972656 1.414062 -21.535156 1.46875 -22.046875 L 5.546875 -22.046875 L 5.546875 -21.703125 C 5.203125 -20.929688 4.804688 -20.09375 4.359375 -19.1875 C 3.910156 -18.289062 3.410156 -17.378906 2.859375 -16.453125 Z M 0.296875 -16.453125 "/></g></g></g><g fill="#babccb" fill-opacity="1"><g transform="translate(49.420118, 32.006369)"><g><path d="M 16.734375 -16.078125 L 10.78125 -0.265625 C 10.46875 0.535156 10.207031 1.375 10 2.25 C 9.789062 3.125 9.628906 3.976562 9.515625 4.8125 C 9.410156 5.644531 9.359375 6.394531 9.359375 7.0625 L 4.71875 7.0625 C 4.71875 6.519531 4.78125 5.832031 4.90625 5 C 5.03125 4.175781 5.203125 3.304688 5.421875 2.390625 C 5.640625 1.484375 5.882812 0.628906 6.15625 -0.171875 L 0.03125 -16.078125 L 4.59375 -16.078125 L 6.953125 -8.984375 C 7.128906 -8.453125 7.316406 -7.832031 7.515625 -7.125 C 7.722656 -6.414062 7.90625 -5.726562 8.0625 -5.0625 C 8.226562 -4.394531 8.335938 -3.894531 8.390625 -3.5625 L 8.484375 -3.5625 C 8.523438 -3.851562 8.609375 -4.289062 8.734375 -4.875 C 8.859375 -5.457031 9.015625 -6.09375 9.203125 -6.78125 C 9.390625 -7.476562 9.59375 -8.144531 9.8125 -8.78125 L 12.171875 -16.078125 Z M 16.734375 -16.078125 "/></g></g></g><g fill="#babccb" fill-opacity="1"><g transform="translate(66.148432, 32.006369)"><g><path d="M 3.453125 -16.28125 C 4.367188 -16.28125 5.109375 -16.140625 5.671875 -15.859375 C 6.242188 -15.578125 6.71875 -15.128906 7.09375 -14.515625 C 7.46875 -13.910156 7.8125 -13.128906 8.125 -12.171875 L 9.1875 -8.984375 L 13.1875 -16.078125 L 17.609375 -16.078125 L 11.078125 -5.125 L 13.875 1.703125 C 14.144531 2.359375 14.457031 2.800781 14.8125 3.03125 C 15.164062 3.269531 15.617188 3.390625 16.171875 3.390625 C 16.390625 3.390625 16.601562 3.378906 16.8125 3.359375 C 17.03125 3.335938 17.296875 3.285156 17.609375 3.203125 L 17.609375 6.625 C 17.203125 6.757812 16.785156 6.863281 16.359375 6.9375 C 15.941406 7.019531 15.425781 7.0625 14.8125 7.0625 C 13.519531 7.0625 12.503906 6.707031 11.765625 6 C 11.023438 5.300781 10.429688 4.253906 9.984375 2.859375 L 8.484375 -1.828125 L 3.96875 7.0625 L -0.703125 7.0625 L 6.515625 -5.65625 L 4.59375 -10.71875 C 4.320312 -11.46875 4.003906 -11.96875 3.640625 -12.21875 C 3.273438 -12.476562 2.867188 -12.609375 2.421875 -12.609375 C 2.222656 -12.609375 1.972656 -12.585938 1.671875 -12.546875 C 1.378906 -12.503906 1.078125 -12.4375 0.765625 -12.34375 L 0.765625 -15.84375 C 1.179688 -15.957031 1.601562 -16.054688 2.03125 -16.140625 C 2.46875 -16.234375 2.941406 -16.28125 3.453125 -16.28125 Z M 3.453125 -16.28125 "/></g></g></g><g fill="#babccb" fill-opacity="1"><g transform="translate(83.583571, 32.006369)"><g><path d="M 16.90625 -8.0625 C 16.90625 -5.394531 16.203125 -3.332031 14.796875 -1.875 C 13.390625 -0.425781 11.484375 0.296875 9.078125 0.296875 C 7.578125 0.296875 6.242188 -0.0234375 5.078125 -0.671875 C 3.910156 -1.328125 2.992188 -2.273438 2.328125 -3.515625 C 1.660156 -4.765625 1.328125 -6.28125 1.328125 -8.0625 C 1.328125 -10.738281 2.019531 -12.789062 3.40625 -14.21875 C 4.800781 -15.65625 6.71875 -16.375 9.15625 -16.375 C 10.664062 -16.375 12 -16.050781 13.15625 -15.40625 C 14.320312 -14.757812 15.238281 -13.816406 15.90625 -12.578125 C 16.570312 -11.335938 16.90625 -9.832031 16.90625 -8.0625 Z M 5.796875 -8.0625 C 5.796875 -6.476562 6.054688 -5.273438 6.578125 -4.453125 C 7.097656 -3.640625 7.945312 -3.234375 9.125 -3.234375 C 10.289062 -3.234375 11.128906 -3.640625 11.640625 -4.453125 C 12.160156 -5.273438 12.421875 -6.476562 12.421875 -8.0625 C 12.421875 -9.65625 12.160156 -10.847656 11.640625 -11.640625 C 11.128906 -12.441406 10.28125 -12.84375 9.09375 -12.84375 C 7.9375 -12.84375 7.097656 -12.441406 6.578125 -11.640625 C 6.054688 -10.847656 5.796875 -9.65625 5.796875 -8.0625 Z M 5.796875 -8.0625 "/></g></g></g><g fill="#babccb" fill-opacity="1"><g transform="translate(101.813885, 32.006369)"><g><path d="M 9.359375 -16.375 C 11.148438 -16.375 12.859375 -15.992188 14.484375 -15.234375 L 13.21875 -11.90625 C 12.5 -12.175781 11.804688 -12.398438 11.140625 -12.578125 C 10.484375 -12.753906 9.851562 -12.84375 9.25 -12.84375 C 8.03125 -12.84375 7.148438 -12.367188 6.609375 -11.421875 C 6.066406 -10.484375 5.796875 -9.082031 5.796875 -7.21875 C 5.796875 -6.332031 5.960938 -5.65625 6.296875 -5.1875 C 6.628906 -4.726562 7.101562 -4.382812 7.71875 -4.15625 C 8.34375 -3.9375 9.054688 -3.738281 9.859375 -3.5625 C 11.609375 -3.1875 12.820312 -2.675781 13.5 -2.03125 C 14.175781 -1.382812 14.515625 -0.597656 14.515625 0.328125 C 14.515625 1.210938 14.304688 2.109375 13.890625 3.015625 C 13.484375 3.929688 13.035156 4.742188 12.546875 5.453125 L 8.125 5.453125 C 8.675781 4.640625 9.164062 3.816406 9.59375 2.984375 C 10.03125 2.148438 10.25 1.476562 10.25 0.96875 C 10.25 0.71875 10.097656 0.472656 9.796875 0.234375 C 9.492188 -0.00390625 8.78125 -0.226562 7.65625 -0.4375 C 5.695312 -0.8125 4.148438 -1.546875 3.015625 -2.640625 C 1.890625 -3.742188 1.328125 -5.226562 1.328125 -7.09375 C 1.328125 -9.445312 1.660156 -11.296875 2.328125 -12.640625 C 2.992188 -13.992188 3.929688 -14.953125 5.140625 -15.515625 C 6.347656 -16.085938 7.753906 -16.375 9.359375 -16.375 Z M 9.359375 -16.375 "/></g></g></g></svg>